<?xml version="1.0" encoding="UTF-8" standalone="no"?>
<svg width="356px" height="475px" viewBox="0 0 356 475" version="1.1" xmlns="http://www.w3.org/2000/svg" xmlns:xlink="http://www.w3.org/1999/xlink">
    <!-- Generator: Sketch 49.3 (51167) - http://www.bohemiancoding.com/sketch -->
    <title>Gopher</title>
    <desc>Created with Sketch.</desc>
    <defs>
        <path d="M27.3789062,7.84960938 C37.2395833,10.5657552 45.1320875,12.8351957 51.0564187,14.6579308 C54.8508375,30.6190499 59.1811404,44.877393 64.0473275,57.4329602 L116.179674,95.9415791 C95.7421591,132.635261 84.5637782,150.949656 82.6445312,150.884766 C79.7656608,150.78743 82.6445312,155.867188 70.9695006,166.550781 C63.169521,168.167969 52.3105469,168.167969 38.3925781,166.550781 C38.6032447,148.674373 38.6032447,133.912654 38.3925781,122.265625 C37.8452793,92.0073596 39.6646999,55.7910156 31.6113281,55.7910156 C9.66828389,55.7910156 5.35504076,53.5995909 0.528868882,50.4824034 C2.86675951,39.8691222 5.39764556,18.8070487 5.79848294,12.5034655 C6.11276162,7.56110738 27.3789062,18.3498235 27.3789062,14.6579308 C27.3789062,10.557903 27.3789062,8.28846247 27.3789062,7.84960938 Z" id="path-1"></path>
        <path d="M27.3789062,7.84960938 C37.2395833,10.5657552 45.1320875,12.8351957 51.0564187,14.6579308 C54.8508375,30.6190499 59.1811404,44.877393 64.0473275,57.4329602 L116.179674,95.9415791 C95.7421591,132.635261 84.5637782,150.949656 82.6445312,150.884766 C79.7656608,150.78743 82.6445312,155.867188 70.9695006,166.550781 C63.169521,168.167969 52.3105469,168.167969 38.3925781,166.550781 C38.6032447,148.674373 38.6032447,133.912654 38.3925781,122.265625 C37.8452793,92.0073596 33.0289915,66.7711341 31.6113281,55.7910156 C33.2872552,49.8200603 29.1897738,27.4222841 29.1897738,20.821851 C29.1897738,14.2214179 27.3789062,18.3498235 27.3789062,14.6579308 C27.3789062,10.557903 27.3789062,8.28846247 27.3789062,7.84960938 Z" id="path-2"></path>
        <path d="M63.776291,59.8408046 C71.8381907,35.8011015 75.8691406,21.7766927 75.8691406,17.7675781 C117.316557,22.5045573 188.846505,16.8873698 290.458984,0.916015625 C309.337011,51.406533 320.206803,84.594033 323.068359,100.478516 C326.847005,126.841797 326.147169,160.506398 320.968849,201.472319 C243.011025,203.672251 170.146441,200.908579 102.375099,193.181303 C89.8770525,186.15396 63.08734,178.32405 60.2084695,178.226714 C58.2892225,178.161824 59.4784963,138.699854 63.776291,59.8408046 Z" id="path-3"></path>
        <path d="M0.48892795,10.4807243 C12.6238882,4.7676901 20.5904272,1.674448 24.3885448,1.20099796 C30.0857212,0.490822905 38.6577499,-0.464009312 44.6205871,3.18356763 C43.213434,41.6604262 53.2511191,52.9797197 47.7580634,57.5094321 C41.5137699,57.6936999 23.5433091,59.9716575 12.9581757,62.936902 C7.40872807,54.3259875 3.25231215,36.8405949 0.48892795,10.4807243 Z" id="path-4"></path>
        <path d="M41.9975917,4.73136553 C52.1604022,2.60683941 60.1926207,2.60683941 66.0942472,4.73136553 C74.9466869,7.91815472 78.9786427,13.7593258 81.0849348,21.0772655 C83.1912269,28.3952053 93.6338413,75.3068711 89.0313735,78.7404506 C79.6971061,74.841301 75.8470481,46.5858404 66.0942472,26.0260584 C64.4212333,18.0979258 56.3890148,14.1338596 41.9975917,14.1338596 C33.1245327,13.6965369 27.3738429,15.6155594 24.7455223,19.8909273 C19.5192182,32.4819276 11.6847317,67.3222307 4.37446282,68.60178 C0.86903364,69.215351 4.24238405,46.3358041 8.11858992,30.3252093 C10.5189232,20.4106784 9.23716674,14.1719633 19.583894,6.35554285 C26.0866254,3.75460987 33.557858,3.21321743 41.9975917,4.73136553 Z" id="path-5"></path>
        <polygon id="path-6" points="2.84217094e-14 55.6210057 29.1277838 55.6210057 29.1277838 60.6210057 2.84217094e-14 60.6210057"></polygon>
        <path d="M80.8506564,47.8006146 L86.9677897,83.483387 L18.9677897,83.483387 L25.084923,47.8006146 C12.3245168,48.3181469 3.9677897,46.7432232 3.9677897,34.983387 C3.9677897,15.9295632 25.905837,0.483387047 52.9677897,0.483387047 C80.0297424,0.483387047 101.96779,15.9295632 101.96779,34.983387 C101.96779,46.7432232 93.6110626,48.3181469 80.8506564,47.8006146 Z" id="path-7"></path>
        <path d="M158.196948,82.3840404 C171.613056,82.3840404 209.148348,86.1984942 234.249925,93.1963785 C243.094476,97.8952814 275.232588,102.835716 303.007123,153.496507 C292.01998,158.817544 272.239949,137.088585 204.312752,147.279133 C163.563909,124.353819 154.011769,135.781728 127.432041,135.781728 C74.7754752,135.781728 79.405436,128.836868 71.1304628,124.353819 C77.8206582,113.46413 118.864512,88.0270556 158.196948,82.3840404 Z" id="path-8"></path>
        <path d="M24.4504754,2.62100574 C25.2031308,1.04844974 27.194016,-7.10542736e-15 32.4194525,-7.10542736e-15 C40.4275814,-7.10542736e-15 46.9194525,2.46243388 46.9194525,5.5 C46.9194525,8.53756612 40.4275814,11 32.4194525,11 C26.393252,11 24.6689092,9.60559276 24.1845068,7.62100574 L0.425652092,7.62100574 L0.425652092,2.62100574 L24.4504754,2.62100574 Z" id="path-9"></path>
    </defs>
    <g id="Page-1" stroke="none" stroke-width="1" fill="none" fill-rule="evenodd">
        <g id="Gopher" transform="translate(-1.000000, -12.000000)">
            <path d="M17.9456384,282.113891 C17.9456384,282.113891 29.4556384,282.523891 39.4356384,278.333891 C49.4156384,274.143891 63.0856384,270.333891 60.8256384,255.753891 C59.4356384,246.753891 37.9056384,251.403891 37.9056384,251.403891 C37.9056384,251.403891 22.1356384,257.203891 11.6356384,256.613891" id="Hand_1" stroke="#000000" stroke-width="3" fill="#F4D5B8" fill-rule="nonzero" transform="translate(36.354627, 266.163919) scale(-1, 1) translate(-36.354627, -266.163919) "></path>
            <path d="M135.174162,87.5838911 C135.174162,87.5838911 135.424162,61.3338911 149.424162,61.5838911 C163.424162,61.8338911 157.674162,92.0838911 157.674162,92.0838911" id="Ear_1" stroke="#000000" stroke-width="3" fill="#EE4A73" fill-rule="nonzero" transform="translate(147.008889, 76.833004) scale(-1, 1) translate(-147.008889, -76.833004) "></path>
            <path d="M119.588485,451.413891 C119.588485,451.413891 139.338485,485.533891 149.958485,478.853891 C160.578485,472.173891 136.268485,443.373891 136.268485,443.373891" id="Leg_1" stroke="#000000" stroke-width="3" fill="#F4D5B8" fill-rule="nonzero" transform="translate(136.116051, 461.547315) scale(-1, 1) translate(-136.116051, -461.547315) "></path>
            <path d="M346.915692,381.823891 C333.665692,380.323891 333.665692,378.573891 326.915692,380.323891 C320.165692,382.073891 301.915692,393.323891 308.915692,398.573891 C315.915692,403.823891 316.665692,405.573891 325.915692,404.073891 C335.165692,402.573891 354.415692,398.323891 354.415692,398.323891" id="Tail" stroke="#000000" stroke-width="3" fill="#F6D8BC" fill-rule="nonzero" transform="translate(330.879654, 392.091341) scale(-1, 1) rotate(9.000000) translate(-330.879654, -392.091341) "></path>
            <g id="Eye_R" transform="translate(47.903616, 168.023891) scale(-1, 1) translate(-47.903616, -168.023891) translate(0.903616, 123.023891)" fill-rule="nonzero">
                <ellipse id="Oval" fill="#FFFFFF" cx="46.87" cy="45.21" rx="45.3" ry="43"></ellipse>
                <path d="M90.67,45.21 C90.28,69.03 70.04,86.37 46.87,86.71 C23.7,87.05 3.45,68.52 3.07,45.21 C2.68,21.39 24.3,4.04 46.87,3.71 C70.04,3.37 90.29,21.9 90.67,45.21 C90.67,47.14 93.67,47.15 93.67,45.21 C93.32,23.73 77.72,6.42 57.07,1.77 C36.21,-2.92 13.96,7.47 4.37,26.53 C-5.13,45.42 1.84,67.75 18.07,80.28 C34.92,93.28 60.6,92.68 77,79.28 C87.3364075,70.989658 93.4460734,58.5284319 93.67,45.28 C93.7,43.28 90.7,43.28 90.67,45.21 Z" id="Shape" fill="#000000"></path>
                <ellipse id="Oval" stroke="#1D1D1B" fill="#000000" cx="80.51" cy="44.73" rx="11.67" ry="11.34"></ellipse>
                <ellipse id="Oval" stroke="#1D1D1B" fill="#FFFFFF" cx="79.63" cy="43.88" rx="3.71" ry="3.69"></ellipse>
            </g>
            <path d="M72.3693302,174.583891 C73.2793302,161.583891 94.3693302,116.583891 130.36933,100.583891 C166.36933,84.5838911 180.36933,84.5838911 215.36933,81.5838911 C250.36933,78.5838911 303.36933,109.583891 313.36933,122.583891 C323.36933,135.583891 330.36933,147.383891 332.36933,164.983891 C334.36933,182.583891 334.36933,190.583891 337.36933,208.583891 C340.36933,226.583891 336.36933,295.583891 325.36933,321.583891 C318.09933,338.773891 306.88933,381.323891 282.48933,414.583891 C269.98933,431.583891 254.02933,446.173891 233.36933,453.583891 C172.36933,475.583891 136.36933,462.943891 127.36933,462.583891 C101.46933,461.583891 96.0993302,454.113891 66.3693302,418.583891 C48.3693302,397.083891 45.5093302,371.343891 45.5093302,353.333891 C45.5093302,331.463891 75.5093302,279.583891 76.5093302,249.583891 C78.2793302,196.223891 69.8993302,209.913891 72.3693302,174.583891 Z" id="Body" stroke="#000000" stroke-width="3" fill="#EE4A73" fill-rule="nonzero" transform="translate(191.921473, 273.951141) scale(-1, 1) translate(-191.921473, -273.951141) "></path>
            <g id="Leg_2" transform="translate(270.903616, 465.523891) scale(-1, 1) translate(-270.903616, -465.523891) translate(255.903616, 446.023891)" fill-rule="nonzero" stroke="#000000" stroke-width="3">
                <path d="M4.06,5.09 C4.06,5.09 -6.44,36.84 9.56,38.59 C25.56,40.34 27.06,9.34 27.06,9.34" id="Shape" fill="#F4D5B8"></path>
                <path d="M0.83,0.72 C0.83,0.72 3.19,12.6 8.07,15.72 C8.07,15.72 8.95,7.22 9.78,6.89 C10.61,6.56 21.95,15.89 20.28,17.22 C18.61,18.55 29.97,11.32 29.96,8.02" id="Shape" fill="#EE4A73"></path>
            </g>
            <path d="M70.0008027,434.563891 C49.3308027,423.453891 48.8608027,406.813891 65.0008027,386.113891 C76.8708027,370.903891 90.3308027,355.783891 97.7308027,312.113891 C101.660803,288.903891 124.550803,261.543891 145.730803,263.113891 C166.910803,264.683891 176.940803,287.273891 169.160803,308.863891 C161.380803,330.453891 133.100803,413.393891 112.710803,424.113891 C112.710803,424.113891 88.7908027,444.673891 70.0008027,434.563891 Z" id="Belly" fill="#F194AA" fill-rule="nonzero" transform="translate(112.702209, 350.204539) scale(-1, 1) translate(-112.702209, -350.204539) "></path>
            <g id="Nose" transform="translate(70.403616, 199.523891) scale(-1, 1) translate(-70.403616, -199.523891) translate(36.903616, 161.023891)" fill-rule="nonzero">
                <ellipse id="Oval" fill="#9B8E7D" cx="38.81" cy="15.04" rx="18.33" ry="13.18"></ellipse>
                <path d="M55.64,15.04 C54.71,30.8 22.91,30.8 21.97,15.04 C21.48,6.76 32.53,3.55 38.8,3.36 C45.8,3.14 55.16,7.04 55.63,15.04 C55.74,16.96 58.74,16.97 58.63,15.04 C57.47,-4.62 20.13,-4.62 18.96,15.04 C18.37,25.04 30.89,29.48 38.79,29.72 C47.64,29.99 58.05,24.72 58.62,15.04 C58.75,13.09 55.75,13.09 55.64,15.04 Z" id="Shape" fill="#000000"></path>
                <path d="M25.34,46.09 L25.34,70.84 C25.34,70.84 23.96,74.28 33.61,74.77 C43.26,75.26 44.36,74.77 44.36,74.77 C44.36,74.77 49.36,76.41 51.25,68.38 C53.14,60.35 58.14,45.27 58.14,45.27 L25.34,46.09 Z" id="Shape" fill="#FFFFFF"></path>
                <path d="M23.83,46.09 L23.83,68.09 C23.83,70.09 23.42,70.77 23.96,72.43 C25.11,75.96 30.71,76.13 33.6,76.35 C36.97,76.6 41.37,77.24 44.73,76.35 C43.16,76.79 45.66,76.53 46.22,76.46 C47.788239,76.1909103 49.2077077,75.3676184 50.22,74.14 C53.69,70.42 54.22,62.79 55.67,58.06 C56.9033333,53.9533333 58.19,49.8633333 59.53,45.79 C59.6508202,45.3381124 59.5553944,44.8557447 59.2716166,44.4838979 C58.9878388,44.1120511 58.5477526,43.8927136 58.08,43.89 L25.27,44.71 C23.34,44.71 23.33,47.71 25.27,47.71 L58.08,46.89 L56.63,44.99 C54.12,52.62 51.63,60.3 49.74,68.1 C49.17,70.43 48.03,73.48 45.2,73.53 C44.74,73.53 44.34,73.29 43.88,73.45 C41.51,74.31 37.78,73.57 35.36,73.45 C33.19,73.37 26.77,73.5 26.77,70.88 L26.77,46.09 C26.6280423,45.3909028 26.0133645,44.8884962 25.3,44.8884962 C24.5866355,44.8884962 23.9719577,45.3909028 23.83,46.09 Z" id="Shape" fill="#000000"></path>
                <path d="M37.66,24.71 C37.66,24.71 29.26,20.71 20.59,22.92 C11.92,25.13 1.76,34.09 2.59,42.75 C3.42,51.41 12.26,57.25 17.59,57.42 C19.59,57.48 24.31,59.25 35.33,59.25 C45.18,59.25 46.83,58.32 52.66,58.08 C60.13,57.78 65.42,52.08 65.26,41.58 C65.1,31.08 57.93,25.75 50.26,26.25 C45.9984714,26.6263168 41.7054482,26.101614 37.66,24.71 Z" id="Shape" fill="#F4D5B8"></path>
                <path d="M38.42,23.42 C24.64,17.17 4.23,23.54 1.2,39.88 C-0.13,47.03 5.34,53.61 11.1,56.96 C15.85,59.73 23.2,60.04 28.56,60.51 C37.02,61.25 45.36,60.16 53.77,59.51 C60.96,58.95 65.19,52.99 66.43,46.39 C67.79,39.11 65.7,31.51 59.57,27.12 C53.44,22.73 44.93,25.97 38.07,23.27 C36.27,22.56 35.49,25.46 37.27,26.16 C41.74,27.92 46.7,27.85 51.41,27.73 C60.02,27.49 63.82,35.73 63.75,43.13 C63.67,50.79 59.26,56.26 51.56,56.65 C45.49,56.95 39.56,57.8 33.46,57.74 C22.97,57.64 8.59,56.58 4.56,45 C1.72,36.84 10.04,29.58 16.33,26.15 C22.62,22.72 30.6,23.15 36.92,26.01 C38.65,26.8 40.18,24.22 38.42,23.42 Z" id="Shape" fill="#000000"></path>
            </g>
            <g id="Coat" transform="translate(17.000000, 236.000000)">
                <g id="Rectangle-2">
                    <use fill="#FFFFFF" fill-rule="evenodd" xlink:href="#path-1"></use>
                    <path stroke="#000000" stroke-width="1" d="M27.8789062,8.50608794 C27.8789062,8.76053229 27.8789062,9.12868307 27.8789062,9.88082956 C27.8789062,11.8117333 27.8789062,11.8117333 27.8789062,14.6579308 C27.8789062,15.9892435 26.5544668,16.1825479 24.2002188,15.7238425 C22.6548526,15.4227409 21.5678725,15.1115916 17.2255842,13.791589 C16.9318275,13.7022906 16.6817086,13.6264968 16.4425626,13.5543722 C12.9881623,12.5125526 10.8930458,11.9748169 9.1961734,11.7647342 C7.24642037,11.5233435 6.34407404,11.8023794 6.29747511,12.5351958 C5.7845765,20.6010581 3.11242325,40.8771513 1.09152618,50.2487216 C7.1874234,54.1070662 13.0655994,55.2910156 31.6113281,55.2910156 C35.0512657,55.2910156 36.892238,60.4850999 37.8384744,70.6511202 C38.5413044,78.2020706 38.6983875,85.79283 38.7520745,104.34791 C38.7591846,106.805262 38.7624969,107.855901 38.7678145,109.201862 C38.7887338,114.496828 38.8239529,118.467053 38.8924964,122.256583 C39.1014896,133.811096 39.1032492,148.427238 38.8978211,166.105686 C52.4726756,167.656371 63.0879817,167.648524 70.7334248,166.088869 C74.3660667,162.750914 76.8066031,159.761545 78.4138575,156.95765 C79.0098938,155.91785 79.4619605,154.959795 79.8701602,153.931205 C80.0023119,153.598207 80.5288951,152.169545 80.6629888,151.860636 C81.1222572,150.802627 81.6638909,150.351324 82.6614268,150.385051 C84.2346772,150.438243 95.7455902,131.588473 115.528848,96.0824508 L63.6335498,57.7489326 L63.5811181,57.61365 C58.7345885,45.1088023 54.4198196,30.9216658 50.6362362,15.0518952 C44.8770726,13.2846577 37.2910288,11.1026288 27.8789062,8.5060894 Z"></path>
                </g>
                <g id="Rectangle-2-Copy-5">
                    <use fill="#232323" fill-rule="evenodd" xlink:href="#path-2"></use>
                    <path stroke="#979797" stroke-width="1" d="M27.8789062,8.50608794 C27.8789062,8.76053229 27.8789062,9.12868307 27.8789062,9.88082956 C27.8789062,11.8117333 27.8789062,11.8117333 27.8789062,14.6579308 C27.8789062,15.7925657 27.9552121,15.9469597 28.2772041,16.090921 C28.4140548,16.1521064 28.4530798,16.1704667 28.5293142,16.2133125 C29.3607712,16.6806142 29.6897738,17.8411208 29.6897738,20.821851 C29.6897738,23.0039966 29.8128016,24.1391003 31.0983161,34.8432653 C31.2444195,36.0598327 31.3652978,37.0844401 31.4777823,38.0652221 C32.5586791,47.4898434 32.8507262,53.063651 32.1201797,55.8253833 C32.4094015,57.9847285 34.5779562,72.3350089 35.3274282,77.9235454 C37.3802679,93.2308154 38.6261974,107.533829 38.8924964,122.256583 C39.1014896,133.811096 39.1032492,148.427238 38.8978211,166.105686 C52.4726756,167.656371 63.0879817,167.648524 70.7334248,166.088869 C74.3660667,162.750914 76.8066031,159.761545 78.4138575,156.95765 C79.0098938,155.91785 79.4619605,154.959795 79.8701602,153.931205 C80.0023119,153.598207 80.5288951,152.169545 80.6629888,151.860636 C81.1222572,150.802627 81.6638909,150.351324 82.6614268,150.385051 C84.2346772,150.438243 95.7455902,131.588473 115.528848,96.0824508 L63.6335498,57.7489326 L63.5811181,57.61365 C58.7345885,45.1088023 54.4198196,30.9216658 50.6362362,15.0518952 C44.8770726,13.2846577 37.2910288,11.1026288 27.8789062,8.5060894 Z"></path>
                </g>
                <g id="Rectangle-2-Copy">
                    <use fill="#232323" fill-rule="evenodd" xlink:href="#path-3"></use>
                    <path stroke="#979797" stroke-width="1" d="M64.271867,59.9355978 C62.1252875,99.3276308 60.7549123,128.881814 60.1607627,148.596631 C59.8636678,158.454703 59.7607306,165.850786 59.8517966,170.781862 C59.8971486,173.237599 59.9906273,175.078362 60.1311786,176.29842 C60.199368,176.890339 60.2780799,177.329242 60.3630507,177.606219 C60.3990905,177.723697 60.4055021,177.73309 60.225365,177.727 C64.9028772,177.885148 92.1066819,186.869879 102.531757,192.695922 C170.126313,200.397598 242.791235,203.160589 320.526399,200.984557 C325.650738,160.251697 326.33184,126.771635 322.57628,100.567163 C319.729189,84.7629755 308.912558,51.7198169 290.133507,1.47328305 C189.12905,17.3342655 117.876713,22.9532581 76.3485525,18.3248616 C76.0299634,23.0290261 72.0135062,36.8474702 64.2718707,59.9355868 Z"></path>
                </g>
            </g>
            <g id="Credit" transform="translate(50.000000, 291.000000)" fill="#494949">
                <path d="M4.21260618,23.5895095 L3.94704389,21.6556583 C3.76419772,20.3241541 4.19447014,19.6352117 5.29613131,19.4839283 L7.76099909,19.1454452 C8.87058588,18.9930734 9.47064403,19.5405277 9.6534902,20.8720318 L9.9190525,22.8058831 C9.94626175,23.0040236 9.871052,23.1031775 9.67291151,23.1303867 L8.7139115,23.2620795 C8.515771,23.2892887 8.41661711,23.214079 8.38940786,23.0159385 L8.17064548,21.4228889 C8.12493394,21.0900129 7.97744499,20.95684 7.70797391,20.9938446 L5.82167638,21.2528767 C5.56013092,21.2887929 5.46192565,21.4557052 5.5076372,21.7885812 L5.72639958,23.3816308 C5.75360883,23.5797713 5.67839908,23.6789252 5.48025858,23.7061345 L4.53710982,23.8356505 C4.33896932,23.8628598 4.23981543,23.78765 4.21260618,23.5895095 Z M4.8513699,28.9127821 L4.61080542,26.9756624 C4.44517086,25.6419079 4.88430508,24.9585799 5.98782819,24.821537 L8.4568619,24.5149159 C9.56832403,24.3768871 10.1612618,24.9320455 10.3268963,26.2658 L10.5674608,28.2029197 C10.5921088,28.4013951 10.5156248,28.4995694 10.3171494,28.5242174 L9.35652856,28.6435137 C9.15805318,28.6681617 9.05987889,28.5916777 9.03523089,28.3932023 L8.83706097,26.7974602 C8.79565233,26.4640216 8.64989561,26.328955 8.37996909,26.3624763 L6.49048348,26.5971253 C6.22849598,26.6296606 6.12814323,26.7952907 6.16955187,27.1287294 L6.3677218,28.7244714 C6.3923698,28.9229468 6.31588575,29.0211211 6.11741037,29.0457691 L5.17266757,29.1630936 C4.97419219,29.1877416 4.8760179,29.1112575 4.8513699,28.9127821 Z M6.52161821,30.4472862 L6.74351839,32.4429877 C6.77180846,32.6974197 6.88842687,32.7327489 7.0156429,32.7186038 L7.23031995,32.6947341 C7.35753598,32.6805891 7.45559462,32.6213902 7.42730455,32.3669581 L7.27701359,31.0152878 C7.25491198,30.8165128 7.33264829,30.7193271 7.53142333,30.6972254 L8.38218053,30.6026305 C8.58095557,30.5805289 8.6781413,30.6582652 8.70024291,30.8570403 L8.79306969,31.6918955 C8.82135975,31.9463275 8.93797816,31.9816566 9.06519419,31.9675116 L9.18445922,31.9542506 C9.31167525,31.9401056 9.41768489,31.8800227 9.38939482,31.6255906 L9.22495883,30.1467043 C9.20285721,29.9479293 9.28059352,29.8507435 9.47936857,29.8286419 L10.4255378,29.7234382 C10.6243128,29.7013366 10.7214986,29.7790729 10.7436002,29.977848 L10.9902542,32.1961775 C11.0883853,33.0787387 10.6979356,33.5487653 9.99824748,33.626563 L9.53708938,33.6778388 C9.13158829,33.722926 8.81618925,33.6372555 8.62622138,33.3042086 C8.62274648,34.0692785 8.2844064,34.3564265 7.58471824,34.4342242 L6.78961806,34.5226306 C5.97066487,34.6136893 5.4114035,34.1446192 5.29824324,33.126891 L5.01887886,30.6143744 C4.99677725,30.4155994 5.07451356,30.3184136 5.27328861,30.296312 L6.20355582,30.1928765 C6.40233087,30.1707749 6.49951659,30.2485112 6.52161821,30.4472862 Z M7.73211089,42.8612994 C6.76028925,42.9515141 6.06272976,42.5342052 5.87786354,40.5427674 C5.69299732,38.5513296 6.30108155,38.0047826 7.2729032,37.9145679 L9.98922434,37.6624104 C10.961046,37.5721957 11.6673107,37.9967309 11.8521769,39.9881687 C12.0370431,41.9796065 11.4202537,42.5189271 10.448432,42.6091419 L7.73211089,42.8612994 Z M7.72752877,39.6961727 C7.51245349,39.7161382 7.36201204,39.8265166 7.41525351,40.4000506 C7.46923445,40.9815505 7.63668359,41.0543844 7.85175887,41.0344189 L9.99454593,40.8355028 C10.2016555,40.8162767 10.3528364,40.7138642 10.2988554,40.1323643 C10.245614,39.5588303 10.0774254,39.4780305 9.87031583,39.4972566 L7.72752877,39.6961727 Z M10.7476347,45.8615293 L9.72671511,45.9408966 L9.77321942,46.5390917 C9.79492144,46.8182494 9.96002064,46.8776317 10.1753709,46.8608901 L10.4465526,46.8398082 C10.6619029,46.8230666 10.815841,46.738882 10.794139,46.4597243 L10.7476347,45.8615293 Z M6.41830809,45.9092267 L6.32281924,44.6809328 C6.3073178,44.4815344 6.38823245,44.3869785 6.58763081,44.3714771 L11.7560363,43.9696798 C11.9554346,43.9541784 12.0499905,44.035093 12.065492,44.2344914 L12.2719711,46.8904775 C12.3649797,48.0868677 11.8517589,48.5039005 11.0621414,48.5652862 L10.6952484,48.5938088 C10.2485961,48.6285321 9.92087792,48.5416713 9.75126868,48.2178431 C9.73272541,48.8050467 9.33976364,49.2207546 8.66978516,49.2728395 L6.97888708,49.4042917 C6.77948872,49.4197931 6.68493281,49.3388784 6.66943137,49.1394801 L6.57332246,47.9032103 C6.55782103,47.7038119 6.63873567,47.609256 6.83813403,47.5937546 L8.05845198,47.4988858 C8.29773002,47.480284 8.39521659,47.3924639 8.37785498,47.1691378 L8.29104693,46.052507 L6.7277638,46.1740382 C6.52836544,46.1895397 6.43380953,46.108625 6.41830809,45.9092267 Z M6.74480746,50.880171 C6.73238695,50.6805571 6.81475206,50.5872619 7.01436601,50.5748414 L7.96452844,50.5157197 C8.16414239,50.5032992 8.25743756,50.5856643 8.26985807,50.7852783 L8.31904332,51.5757496 L11.0018549,51.4088178 L10.9526696,50.6183466 C10.9402491,50.4187326 11.0226142,50.3254374 11.2222282,50.3130169 L12.1883597,50.2529016 C12.3879737,50.2404811 12.4812688,50.3228462 12.4936893,50.5224602 L12.7053349,53.923882 C12.7177555,54.1234959 12.6353903,54.2167911 12.4357764,54.2292116 L11.4696448,54.2893269 C11.2700309,54.3017474 11.1767357,54.2193823 11.1643152,54.0197683 L11.1161236,53.2452662 L8.43331206,53.4121979 L8.48150366,54.1867001 C8.49392418,54.386314 8.41155906,54.4796092 8.21194511,54.4920297 L7.26178269,54.5511514 C7.06216873,54.5635719 6.96887357,54.4812068 6.95645305,54.2815928 L6.74480746,50.880171 Z M7.23470659,60.3432752 L7.11107052,57.82631 C7.04513128,56.4839285 7.53389042,55.8351678 8.64455128,55.7806109 L11.1375454,55.6581523 C12.2482063,55.6035954 12.7981947,56.2013318 12.864134,57.5437132 L12.9622578,59.5413047 C12.9720702,59.7410639 12.8884936,59.8332753 12.6887345,59.8430877 L11.7219002,59.8905797 C11.5221411,59.9003921 11.4299296,59.8168155 11.4201172,59.6170563 L11.3384782,57.9550602 C11.3219934,57.6194649 11.1866901,57.4739278 10.9150176,57.4872727 L9.00532019,57.5810791 C8.73364775,57.5944239 8.61967969,57.7201669 8.63184705,57.9678682 L8.66991911,58.7429337 L9.91641619,58.6817044 C10.1161753,58.671892 10.2083868,58.7554686 10.2181992,58.9552277 L10.279036,60.1937345 C10.2888484,60.3934936 10.2052718,60.4857051 10.0055127,60.4955175 L7.5364896,60.6167986 C7.33673045,60.626611 7.24451898,60.5430344 7.23470659,60.3432752 Z M11.6930715,65.8714281 L10.6694671,65.8998916 L10.686145,66.4996598 C10.693928,66.7795516 10.8558675,66.8470763 11.071784,66.8410723 L11.3436789,66.8335117 C11.5595955,66.8275077 11.7175323,66.751088 11.7097493,66.4711962 L11.6930715,65.8714281 Z M7.36673532,65.7036198 L7.33249015,64.4720959 C7.32693087,64.2721731 7.41245078,64.1817611 7.6123735,64.1762018 L12.7943704,64.0321052 C12.9942932,64.0265459 13.0847052,64.1120659 13.0902645,64.3119886 L13.1643141,66.9749592 C13.1976698,68.1744955 12.6643315,68.5654715 11.8726375,68.5874863 L11.5047797,68.5977153 C11.0569528,68.6101681 10.7339632,68.5071062 10.5806793,68.1752388 C10.5329371,68.7607921 10.1197748,69.1564294 9.44803442,69.1751086 L7.75268975,69.2222513 C7.55276702,69.2278105 7.46235494,69.1422906 7.45679566,68.9423679 L7.42232812,67.702847 C7.41676884,67.5029243 7.50228876,67.4125122 7.70221148,67.4069529 L8.92573853,67.3729301 C9.1656458,67.366259 9.2673819,67.2833991 9.26115551,67.0594856 L9.23002353,65.9399184 L7.6626294,65.9835032 C7.46270668,65.9890625 7.3722946,65.9035425 7.36673532,65.7036198 Z M7.47136624,72.3073599 L7.44752872,70.6915357 C7.44457853,70.4915575 7.53127088,70.402269 7.73124912,70.3993188 L9.35507242,70.3753633 C9.56304979,70.3722951 9.64433917,70.4591054 9.64728936,70.6590837 L9.67112688,72.2749078 C9.67407707,72.4748861 9.59538385,72.5640566 9.38740648,72.5671248 L7.76358318,72.5910803 C7.56360494,72.5940305 7.47431643,72.5073381 7.47136624,72.3073599 Z M7.52087943,77.6268278 L7.5098072,76.3868773 C7.50802136,76.1868852 7.59523208,76.098103 7.79522411,76.0963171 L12.9790174,76.0500281 C13.1790095,76.0482423 13.2677917,76.135453 13.2695776,76.335445 L13.301437,79.9033028 C13.3032228,80.1032948 13.2160121,80.192077 13.0160201,80.1938629 L12.064058,80.2023635 C11.864066,80.2041493 11.7752838,80.1169386 11.7734979,79.9169466 L11.7552823,77.8770279 L10.9233155,77.884457 L10.935745,79.2764015 C10.9375308,79.4763936 10.8503201,79.5651758 10.6503281,79.5669617 L9.69036632,79.5755337 C9.4903743,79.5773195 9.40159203,79.4901088 9.39980619,79.2901168 L9.38737673,77.8981723 L7.81143956,77.9122447 C7.61144753,77.9140306 7.52266527,77.8268199 7.52087943,77.6268278 Z M11.8677543,83.2281619 L10.8437641,83.2326443 L10.8463905,83.8326386 C10.8476161,84.1126359 11.0079298,84.1839348 11.2239277,84.1829893 L11.4959251,84.1817987 C11.711923,84.1808532 11.8716063,84.1081535 11.8703807,83.8281562 L11.8677543,83.2281619 Z M7.54653497,82.9590749 L7.54114207,81.7270867 C7.5402666,81.5270886 7.62788055,81.4387042 7.82787863,81.4378288 L13.011829,81.4151365 C13.2118271,81.4142611 13.3002114,81.501875 13.3010869,81.7018731 L13.3127482,84.3658476 C13.318001,85.5658361 12.7756521,85.9442138 11.9836597,85.9476806 L11.6156632,85.9492915 C11.1676675,85.9512526 10.8471803,85.8406544 10.7017109,85.5052879 C10.6402679,86.0895625 10.2179528,86.4754148 9.54595928,86.4783564 L7.84997553,86.4857804 C7.64997744,86.4866559 7.56159308,86.3990419 7.56071761,86.1990438 L7.55528969,84.9590557 C7.55441421,84.7590576 7.64202816,84.6706733 7.84202625,84.6697978 L9.06601452,84.6644399 C9.30601222,84.6633893 9.40966104,84.5829349 9.40868051,84.358937 L9.40377787,83.2389477 L7.83579289,83.2458114 C7.63579481,83.2466869 7.54741045,83.159073 7.54653497,82.9590749 Z M7.55012724,91.7756602 L7.55048885,88.0636603 C7.55050833,87.8636603 7.6385169,87.7756688 7.8385169,87.7756883 L13.0225169,87.7761933 C13.2225169,87.7762128 13.3105083,87.8642214 13.3104888,88.0642214 L13.3101272,91.7762214 C13.3101077,91.9762214 13.2220992,92.0642128 13.0220992,92.0641933 L12.0860992,92.0641021 C11.8860992,92.0640826 11.7981077,91.9760741 11.7981272,91.7760741 L11.7983423,89.5680741 L11.1823423,89.5680141 L11.1821903,91.1280141 C11.1821709,91.3280141 11.0941623,91.4160055 10.8941623,91.415986 L10.0381623,91.4159026 C9.8381623,91.4158831 9.75017087,91.3278746 9.75019036,91.1278746 L9.75034232,89.5678746 L9.06234233,89.5678076 L9.06212723,91.7758075 C9.06210775,91.9758075 8.97409918,92.063799 8.77409918,92.0637795 L7.83809918,92.0636883 C7.63809918,92.0636688 7.55010776,91.9756602 7.55012724,91.7756602 Z M7.53337598,94.884912 L7.53750309,93.6849191 C7.53819094,93.4849203 7.62649307,93.3972235 7.82649189,93.3979113 L13.0104612,93.4157404 C13.21046,93.4164283 13.2981569,93.5047304 13.297469,93.7047292 L13.2946076,94.5367243 C13.2938922,94.7447231 13.2374523,94.8725297 13.0769855,95.0079786 L11.2956583,96.5538613 L12.9996482,96.5597218 C13.199647,96.5604097 13.2873438,96.6487118 13.286656,96.8487106 L13.2825289,98.0487035 C13.281841,98.2487023 13.1935389,98.3363992 12.9935401,98.3357113 L7.80957074,98.3178822 C7.60957193,98.3171944 7.5218751,98.2288922 7.52256295,98.0288934 L7.52669006,96.8289005 C7.52737791,96.6289017 7.61568005,96.5412049 7.81567886,96.5418927 L8.79967304,96.5452769 L10.4603682,95.1829804 L7.82038377,95.1739008 C7.62038495,95.173213 7.53268813,95.0849108 7.53337598,94.884912 Z M7.47821888,103.638366 L7.49130571,101.68641 C7.50031632,100.34244 8.02448813,99.7219406 9.13646314,99.7293958 L11.6244072,99.7460762 C12.744382,99.753585 13.2601869,100.381057 13.2511763,101.725027 L13.2380894,103.676983 C13.2367486,103.876979 13.1481606,103.964387 12.9481651,103.963046 L11.9801868,103.956556 C11.7801913,103.955215 11.6927833,103.866627 11.6941241,103.666632 L11.7049047,102.058668 C11.7071573,101.722675 11.5801793,101.569821 11.3081854,101.567997 L9.40422816,101.555232 C9.1402341,101.553462 9.01921774,101.704654 9.01696509,102.040647 L9.00618454,103.64861 C9.00484367,103.848606 8.91625567,103.936014 8.71626017,103.934673 L7.76428156,103.928291 C7.56428606,103.92695 7.47687801,103.838362 7.47821888,103.638366 Z M7.44574751,106.747828 L7.45703802,105.507879 C7.45885906,105.307887 7.54765668,105.220692 7.74764839,105.222513 L12.9314335,105.269715 C13.1314252,105.271536 13.2186203,105.360334 13.2167992,105.560325 L13.2055087,106.800274 C13.2036877,107.000266 13.1148901,107.087461 12.9148984,107.08564 L11.1789703,107.069833 L11.1668057,108.405778 L12.9027338,108.421584 C13.1027255,108.423405 13.1899206,108.512203 13.1880995,108.712195 L13.176809,109.952143 C13.174988,110.152135 13.0861903,110.23933 12.8861986,110.237509 L7.70241353,110.190307 C7.50242183,110.188486 7.41522673,110.099689 7.41704778,109.899697 L7.42833829,108.659749 C7.43015933,108.459757 7.51895695,108.372562 7.71894866,108.374383 L9.49487504,108.390554 L9.50703964,107.054609 L7.73111326,107.038438 C7.53112155,107.036617 7.44392646,106.947819 7.44574751,106.747828 Z" id="CC3-Orig-R.-French-Copy"></path>
            </g>
            <g id="Hand_2" transform="translate(191.172238, 303.155801) scale(-1, 1) rotate(-74.000000) translate(-191.172238, -303.155801) translate(166.172238, 269.155801)">
                <path d="M17.08,26.09 C17.08,26.09 15.13,36.48 17.08,46.22 C19.03,55.96 24.87,70.22 36.56,67.65 C48.25,65.08 41.75,47.85 41.75,47.85 C41.75,47.85 38.18,33.85 40.13,24.48" id="Shape" stroke="#000000" stroke-width="3" fill="#F4D5B8" fill-rule="nonzero"></path>
                <g id="Rectangle-6">
                    <use fill="#FFFFFF" fill-rule="evenodd" xlink:href="#path-4"></use>
                    <path stroke="#979797" stroke-width="1" d="M1.02338136,10.7819038 C3.74589007,36.5569064 7.80979447,53.7616719 13.1817887,62.356155 C22.5361736,59.7945008 39.807405,57.274633 47.5665987,57.0152149 C48.8024516,55.9153157 49.1304335,54.3422233 48.7879426,51.4832713 C48.5742064,49.699102 46.7274383,40.629815 46.4577108,39.1359709 C44.5110444,28.3546582 43.6206446,17.343866 44.110315,3.46054946 C39.4244622,0.706282343 33.7992377,0.531788386 24.4503931,1.69715801 C20.7579,2.15744155 12.9266708,5.18948679 1.02338136,10.7819038 Z"></path>
                </g>
            </g>
            <g id="beard" transform="translate(21.000000, 178.000000)">
                <path d="M34.8656945,57.0226208 C45.0366041,59.8074679 57.370653,101.420007 71.8678412,181.860238 C67.4397951,179.460066 62.8606791,178.017381 58.1304931,177.532184 C53.4003072,177.046987 43.0907241,176.962469 27.2017438,177.27863 C22.1401346,94.3231101 24.6947849,54.2377737 34.8656945,57.0226208 Z" id="Triangle" stroke="#979797" fill="#FFFFFF" transform="translate(48.273352, 119.373591) rotate(181.000000) translate(-48.273352, -119.373591) "></path>
                <g id="Combined-Shape" transform="translate(46.547626, 40.939211) rotate(3.000000) translate(-46.547626, -40.939211) ">
                    <use fill="#FFFFFF" fill-rule="evenodd" xlink:href="#path-5"></use>
                    <path stroke="#979797" stroke-width="1" d="M19.8317764,6.79498364 C16.9251564,8.99784029 14.8657657,11.1365032 13.4136681,13.3844057 C11.5951347,16.1995645 10.8384015,18.6828561 9.91661471,23.8250209 C9.15873317,28.0528444 9.06813813,28.5280228 8.60455074,30.4428617 C6.61949711,38.642088 4.84090906,48.3156569 3.97506104,55.7553577 C3.51490061,59.709234 3.32453458,62.9119873 3.43490698,65.1062879 C3.54099929,67.2154966 3.91862596,68.1739656 4.28825617,68.1092676 C5.3006935,67.9320562 6.43869825,66.9283986 7.65972095,65.1212123 C10.3968816,61.0700514 13.1567456,53.9013508 16.9732611,41.8705628 C17.5892396,39.9288161 20.1977716,31.5464138 20.8578248,29.4782807 C22.270453,25.0521175 23.3330637,21.9895369 24.3195743,19.6290719 C27.0636107,15.1654745 32.9861387,13.189109 41.9975917,13.6338596 C56.5625455,13.6338596 64.8106837,17.6875137 66.5710823,25.8646889 C68.6882419,30.3350888 70.6309126,35.3540453 72.7296206,41.5624207 C73.8923799,45.0020828 77.7518464,57.1648708 78.562811,59.5791778 C82.3088518,70.7314436 85.2751696,76.3950941 88.9276621,78.1461696 C90.4598431,76.2086529 89.6680875,66.1615208 87.0814948,51.4520875 C85.1090448,40.2351605 81.9908601,26.0324293 80.6044418,21.2155639 C78.2938497,13.1878199 73.9120526,8.07710828 65.9248917,5.20181075 C60.1239455,3.11352851 52.1801079,3.11352851 42.0999045,5.22078568 L41.9090719,5.2234674 C33.5841641,3.7259743 26.227946,4.25224181 19.8317764,6.79498364 Z"></path>
                </g>
            </g>
            <g id="Bun" transform="translate(220.742149, 55.459266) rotate(15.000000) translate(-220.742149, -55.459266) translate(166.242149, 13.459266)">
                <g id="Rectangle-5">
                    <use fill="#D8D8D8" fill-rule="evenodd" xlink:href="#path-6"></use>
                    <path stroke="#000000" stroke-width="1" d="M0.5,56.1210057 L0.5,60.1210057 L28.6277838,60.1210057 L28.6277838,56.1210057 L0.5,56.1210057 Z"></path>
                </g>
                <g id="Rectangle-4">
                    <use fill="#FFFFFF" fill-rule="evenodd" xlink:href="#path-7"></use>
                    <path stroke="#000000" stroke-width="3" d="M20.746818,81.983387 L85.1887614,81.983387 L79.0589593,46.2267143 L80.911443,46.3018467 C95.3039404,46.8855729 100.46779,44.3640539 100.46779,34.983387 C100.46779,16.8934219 79.2912184,1.98338705 52.9677897,1.98338705 C26.644361,1.98338705 5.4677897,16.8934219 5.4677897,34.983387 C5.4677897,44.3640539 10.6316391,46.8855729 25.0241364,46.3018467 L26.8766201,46.2267143 L20.746818,81.983387 Z"></path>
                </g>
            </g>
            <g id="Rectangle-3">
                <use fill="#FFFFFF" fill-rule="evenodd" xlink:href="#path-8"></use>
                <path stroke="#979797" stroke-width="1" d="M158.232623,82.8840471 C140.248121,85.4696806 120.561016,92.4228013 102.655685,101.843914 C87.6670891,109.730351 75.6121272,118.580949 71.838887,124.177592 C72.9275559,124.80919 73.7951306,125.476252 75.1479889,126.638399 C76.1067166,127.461976 76.161811,127.508858 76.5486794,127.822331 C82.9748637,133.029357 94.6466239,135.281728 127.432041,135.281728 C132.985122,135.281728 137.301013,134.88166 144.836628,133.862087 C149.153051,133.278073 149.574998,133.222413 151.284431,133.026058 C168.301903,131.071331 181.494318,133.887773 204.408293,146.759251 C235.410878,142.125369 257.676534,143.510049 278.663825,148.951452 C281.590098,149.71015 291.633432,152.631975 293.698331,153.11345 C297.611719,154.025941 300.187859,154.109587 302.306364,153.259984 C298.169672,145.764838 293.810581,139.048857 289.245837,133.056309 C278.694087,119.204085 267.520115,109.706592 255.509463,103.095504 C251.25318,100.752695 247.268763,98.9542936 242.494538,97.0868384 C241.463897,96.6836997 238.19412,95.4380507 237.603583,95.2072493 C235.999859,94.5804605 234.923574,94.1164292 234.063799,93.6635668 C212.411418,87.6360784 175.562279,82.8905576 158.232623,82.8840471 Z"></path>
            </g>
            <g id="Ear_2" transform="translate(265.903616, 104.023891) scale(-1, 1) translate(-265.903616, -104.023891) translate(240.903616, 79.023891)" fill-rule="nonzero">
                <path d="M23.56,49.56 L3.89,24.56 C3.89,24.56 -5.94,8.65 9.39,2.36 C24.72,-3.93 35.22,8.23 36.06,9.36 C36.9,10.49 49.23,29.19 49.23,29.19" id="Shape" stroke="#000000" stroke-width="3" fill="#EE4A73"></path>
                <path d="M18.06,14.72 C18.06,14.72 17.96,23.72 22.01,27.72 C26.06,31.72 29.73,34.55 31.73,33.05 C33.73,31.55 28.23,20.55 25.9,19.22 C23.57,17.89 22.06,14.22 18.06,14.72 Z" id="Shape" fill="#030405"></path>
                <path d="M16.56,14.72 C16.56,19.21 17.42,24.22 20.16,27.87 C21.5,29.66 30.79,38.87 33.22,33.59 C34.94,29.87 31.43,24.31 29.55,21.26 C28.36,19.33 26.9,18.33 25.3,16.82 C23.08,14.72 21.3,13.07 18.05,13.22 C16.12,13.31 16.11,16.31 18.05,16.22 C20.82,16.1 24.51,19.45 26.21,21.68 C28.1734992,24.3421081 29.6155321,27.3517157 30.46,30.55 C31.3,33.7 26.71,29.97 26,29.39 C23.7486307,27.756144 21.9798028,25.5451092 20.88,22.99 C19.9364707,20.3371589 19.4824407,17.5350489 19.54,14.72 C19.4522127,13.9635464 18.8115304,13.3929162 18.05,13.3929162 C17.2884696,13.3929162 16.6477873,13.9635464 16.56,14.72 Z" id="Shape" fill="#1D1D1B"></path>
            </g>
            <g id="hairpin_front" transform="translate(246.415336, 79.420433) rotate(15.000000) translate(-246.415336, -79.420433) translate(222.915336, 73.920433)">
                <g id="Combined-Shape">
                    <use fill="#D8D8D8" fill-rule="evenodd" xlink:href="#path-9"></use>
                    <path stroke="#000000" stroke-width="1" d="M0.925652092,3.12100574 L0.925652092,7.12100574 L24.5771443,7.12100574 L24.6702469,7.50244523 C25.1651405,9.53001467 27.1889308,10.5 32.4194525,10.5 C40.1690284,10.5 46.4194525,8.12914946 46.4194525,5.5 C46.4194525,2.87085054 40.1690284,0.5 32.4194525,0.5 C27.7937299,0.5 25.6402065,1.29341038 24.9014796,2.83686497 L24.7654844,3.12100574 L0.925652092,3.12100574 Z"></path>
                </g>
            </g>
            <ellipse id="Oval-4" fill="#FFFFFF" transform="translate(254.907685, 120.299906) rotate(37.000000) translate(-254.907685, -120.299906) " cx="254.907685" cy="120.299906" rx="22.0922724" ry="3.76197276"></ellipse>
            <g id="Eye_L" transform="translate(160.403616, 179.023891) scale(-1, 1) translate(-160.403616, -179.023891) translate(103.903616, 126.023891)" fill-rule="nonzero">
                <ellipse id="Oval" fill="#FFFFFF" cx="56.7" cy="52.56" rx="54.47" ry="51"></ellipse>
                <path d="M109.67,52.56 C109.32,77.56 90.17,96.83 66.25,101.27 C41.83,105.79 15.83,92.35 6.72,69.01 C-2.28,45.84 9.72,20.82 30.72,9.39 C52.72,-2.55 81.19,2.86 97.72,21.3 C105.32066,29.9468389 109.54296,41.0476862 109.61,52.56 C109.61,53.3884271 110.281573,54.06 111.11,54.06 C111.938427,54.06 112.61,53.3884271 112.61,52.56 C112.31,31.09 98.77,12.82 79.23,4.56 C59.23,-3.92 35.63,-0.01 19.02,13.73 C2.73973406,27.4153281 -3.31772954,49.7788935 3.83,69.81 C10.99,89.81 30.42,102.51 50.96,104.81 C82.15,108.26 112.23,84.55 112.67,52.59 C112.678284,51.7615729 112.013427,51.0832843 111.185,51.075 C110.356573,51.0667157 109.678284,51.7315729 109.67,52.56 Z" id="Shape" fill="#1D1D1B"></path>
                <ellipse id="Oval" stroke="#1D1D1B" fill="#000000" cx="72.57" cy="45.22" rx="17.67" ry="16"></ellipse>
                <ellipse id="Oval" stroke="#1D1D1B" fill="#FFFFFF" cx="67.9" cy="40.57" rx="4.67" ry="4.65"></ellipse>
            </g>
            <g id="Title" transform="translate(162.000000, 396.000000)" fill="#DC395F">
                <path d="M24.9911813,23.1876843 L17.4381453,22.8632663 C13.4098595,22.6902434 11.6065273,21.0513483 11.7496831,17.7184213 L12.0710114,10.237319 C12.2141672,6.904392 14.1513862,5.42616108 18.1796721,5.59918399 L24.1741451,5.85665856 C24.7735924,5.88240602 25.0260203,6.15749171 25.0002729,6.75693901 L24.8756552,9.65826396 C24.8499077,10.2577113 24.574822,10.5101392 23.9753747,10.4843917 L18.9879732,10.2701729 C17.9809017,10.2269172 17.5088434,10.5909954 17.4738269,11.4062437 L17.2276812,17.1369599 C17.1926646,17.9522082 17.5368845,18.3273251 18.2801992,18.359252 L20.6060547,18.4591521 L20.7667189,14.7186009 C20.7924663,14.1191536 21.067552,13.8667257 21.6669993,13.8924731 L25.3835726,14.0521074 C25.9830199,14.0778548 26.2354478,14.3529405 26.2097004,14.9523878 L25.8914618,22.3615565 C25.8657143,22.9610038 25.5906286,23.2134317 24.9911813,23.1876843 Z M44.7629677,19.3185589 C44.6571059,22.2446446 43.1468943,24.1592947 37.1508172,23.9423648 C31.15474,23.7254349 29.7628502,21.7057906 29.868712,18.779705 L30.1646044,10.6010557 C30.2704662,7.67497007 31.8055298,5.73720335 37.801607,5.95413329 C43.7976841,6.17106322 45.1647219,8.21382402 45.0588601,11.1399097 L44.7629677,19.3185589 Z M35.344388,18.1132423 C35.3209595,18.7608186 35.5914169,19.2509174 37.3182871,19.3133932 C39.0691416,19.3767368 39.3503234,18.9065955 39.3737518,18.2590192 L39.6071684,11.8072401 C39.6297292,11.1836481 39.3832562,10.694417 37.6324016,10.6310735 C35.9055314,10.5685977 35.6003653,11.0378712 35.5778046,11.6614632 L35.344388,18.1132423 Z M49.1719142,17.7907616 C48.5722114,17.7718769 48.3158961,17.5236866 48.3355361,16.8999957 L48.4367579,13.6855891 C48.4556426,13.0858863 48.727821,12.8303264 49.3275238,12.849211 L55.7563371,13.0516546 C56.3560398,13.0705392 56.6123551,13.3187296 56.5927151,13.9424204 L56.4914933,17.1568271 C56.4718533,17.7805179 56.2004302,18.0120898 55.6007275,17.9932051 L49.1719142,17.7907616 Z M64.5010229,24.415113 L60.9265243,24.3114988 C60.3267763,24.2941138 60.0705365,24.0225753 60.0879214,23.4228272 L60.5385391,7.87735691 C60.5559241,7.27760882 60.8274626,7.02136904 61.4272107,7.03875398 L65.2895884,7.15071301 C65.7933767,7.16531637 66.0996826,7.36627592 66.3722629,7.90239901 L68.4180062,11.8753423 C68.5775909,12.1680892 68.6460836,12.290125 68.838003,12.2956882 L69.0539123,12.3019467 C69.2458317,12.3075099 69.3212785,12.1896465 69.4975527,11.9066352 L71.7460057,8.0581681 C72.0491836,7.53873455 72.3666157,7.35585534 72.8704041,7.37045869 L76.7567717,7.48311312 C77.3565198,7.50049806 77.6127596,7.77203659 77.5953746,8.37178468 L77.1447569,23.917255 C77.127372,24.5170031 76.8558334,24.7732429 76.2560854,24.7558579 L72.5616372,24.6487667 C71.9378992,24.6306863 71.7056493,24.3598432 71.7230342,23.7600951 L71.9678142,15.3156421 L70.4766104,17.8895153 C70.1727372,18.4329387 69.8066298,18.6384171 69.1828917,18.6203368 L68.2232948,18.5925208 C67.5995568,18.5744405 67.2459665,18.3481002 66.9740816,17.7879872 L65.6344745,15.1320571 L65.3896945,23.5765101 C65.3723095,24.1762582 65.100771,24.432498 64.5010229,24.415113 Z M88.1694708,12.7672811 L86.9535061,16.3869106 L90.7204023,16.4781102 L89.6810278,12.8038771 C89.5680336,12.513057 89.4269803,12.3896068 89.2350365,12.3849597 L88.6352123,12.3704375 C88.4432685,12.3657904 88.2964063,12.4822699 88.1694708,12.7672811 Z M86.5265302,24.1068378 C86.512008,24.706662 86.2416956,24.9641949 85.6418713,24.9496727 L82.1149049,24.864282 C81.5150806,24.8497598 81.2575478,24.5794474 81.27207,23.9796231 L81.4254246,17.6454793 C81.4486602,16.6857605 81.7656202,15.4930827 82.4540926,13.8292589 L84.6733427,8.43339223 C84.8786469,7.88620105 85.2683433,7.65556558 85.9161535,7.67124957 L92.3702622,7.82750866 C92.9940794,7.84261177 93.372158,8.09183568 93.5507413,8.64832108 L95.5062678,14.1452624 C96.1134158,15.8404542 96.372287,17.0470734 96.3490514,18.0067921 L96.1956968,24.340936 C96.1811746,24.9407602 95.9108621,25.1982931 95.3110379,25.1837709 L91.6880996,25.0960567 C91.0402894,25.0803727 90.7587635,24.8094793 90.7732858,24.2096551 L90.8546102,20.8506394 L86.6078547,20.7478221 L86.5265302,24.1068378 Z M108.318533,25.4136142 L100.736003,25.2643023 C100.136119,25.2524896 99.8773677,24.9833432 99.8891804,24.3834595 L99.9444636,21.5760038 C99.9562762,20.9761201 100.225423,20.7173688 100.825306,20.7291815 L107.280055,20.8562856 C107.687976,20.8643182 107.910077,20.5566312 107.917637,20.1727057 C107.928504,19.6208127 107.716799,19.400602 107.309823,19.3445787 L103.720443,18.7698004 C101.471496,18.38945 100.02668,17.4008132 100.0796,14.7133342 L100.129213,12.1938226 C100.183079,9.45835292 102.060016,8.00702429 105.179412,8.06845008 L111.898109,8.20075178 C112.497993,8.21256443 112.756744,8.48171083 112.744931,9.08159454 L112.688703,11.937041 C112.676891,12.5369247 112.407744,12.795676 111.80786,12.7838633 L106.216944,12.6737694 C105.809023,12.6657368 105.5634,12.9489559 105.554895,13.3808722 C105.54639,13.8127884 105.780673,14.1054577 106.187649,14.161481 L109.753506,14.7117913 C112.002453,15.0921418 113.471265,16.0812511 113.418344,18.7687301 L113.368731,21.2882417 C113.314865,24.0237114 111.413933,25.4745675 108.318533,25.4136142 Z M124.984879,25.6593675 L121.09732,25.6007696 C120.497389,25.5917267 120.237397,25.3237778 120.24644,24.723846 L120.424043,12.9411844 L116.896443,12.8880123 C116.296512,12.8789694 116.03652,12.6110205 116.045563,12.0110886 L116.089331,9.10741847 C116.098374,8.50748662 116.366323,8.24749548 116.966254,8.25653837 L129.636815,8.44752415 C130.236747,8.45656704 130.496738,8.72451592 130.487695,9.32444777 L130.443928,12.2281179 C130.434885,12.8280498 130.166936,13.0880409 129.567004,13.078998 L126.039405,13.0258259 L125.861802,24.8084874 C125.85276,25.4084193 125.584811,25.6684104 124.984879,25.6593675 Z M145.740988,25.8469006 L134.605471,25.7430893 C134.005497,25.737496 133.74397,25.4710464 133.749563,24.8710725 L133.894541,9.31974827 C133.900134,8.71977435 134.166584,8.45824686 134.766558,8.46384014 L145.902074,8.56765144 C146.502048,8.57324472 146.763575,8.83969429 146.757982,9.43966822 L146.731806,12.2475462 C146.726212,12.8475201 146.459763,13.1090476 145.859789,13.1034543 L139.236077,13.0417045 L139.218849,14.8896242 L143.898646,14.9332518 C144.49862,14.9388451 144.760147,15.2052947 144.754554,15.8052686 L144.730615,18.373157 C144.725022,18.9731309 144.458572,19.2346584 143.858598,19.2290651 L139.178801,19.1854375 L139.159561,21.2493479 L145.783273,21.3110977 C146.383247,21.316691 146.644774,21.5831405 146.639181,22.1831145 L146.613004,24.9909925 C146.607411,25.5909664 146.340961,25.8524939 145.740988,25.8469006 Z M156.066551,12.8703262 L156.060828,15.9423209 L157.860825,15.9456737 C158.700824,15.9472384 158.917718,15.4676416 158.918925,14.8196427 L158.920445,14.0036441 C158.921652,13.3556452 158.706546,12.8752437 157.866548,12.8736791 L156.066551,12.8703262 Z M155.178411,25.8286943 L151.482418,25.8218097 C150.882419,25.8206921 150.618911,25.5562008 150.620029,24.9562019 L150.648998,9.40422885 C150.650115,8.80422989 150.914606,8.5407221 151.514605,8.54183973 L159.506592,8.55672649 C163.106585,8.56343224 164.231543,10.1975305 164.227118,12.5735264 L164.225061,13.6775245 C164.222558,15.0215222 163.88477,15.9808946 162.875967,16.4110163 C164.627606,16.6062794 165.777235,17.880423 165.77348,19.8964196 L165.764002,24.9844107 C165.762885,25.5844097 165.498394,25.8479175 164.898395,25.8467998 L161.178401,25.8398706 C160.578402,25.8387529 160.314894,25.5742616 160.316012,24.9742627 L160.322852,21.3022691 C160.324193,20.5822703 160.084774,20.2698238 159.412776,20.2685721 L156.052781,20.2623134 L156.044019,24.9663052 C156.042902,25.5663042 155.77841,25.8298119 155.178411,25.8286943 Z" id="go-master-copy"></path>
            </g>
        </g>
    </g>
</svg>