<svg xmlns="http://www.w3.org/2000/svg" xmlns:xlink="http://www.w3.org/1999/xlink" xmlns:lucid="lucid" width="553" height="571"><g transform="translate(-184 -1968)" lucid:page-tab-id="0_0"><path d="M0 0h1760v1360H0z" fill="#fff"/><path d="M200 1980h520v540H200z" stroke="#000" stroke-width="2" fill-opacity="0"/><use xlink:href="#a" transform="matrix(1,0,0,1,205,1985) translate(0 14.4)"/><use xlink:href="#b" transform="matrix(1,0,0,1,205,1985) translate(62.900000000000006 14.4)"/><path d="M418 2040c17.67 0 32 13.43 32 30s-14.33 30-32 30h-96c-17.67 0-32-13.43-32-30s14.33-30 32-30z" stroke="#000" stroke-width="2" fill="#99d5ca"/><use xlink:href="#c" transform="matrix(1,0,0,1,295,2045) translate(12.074999999999996 28.6)"/><use xlink:href="#d" transform="matrix(1,0,0,1,295,2045) translate(83.025 28.6)"/><path d="M370 2155l50 37.5-50 37.5-50-37.5z" stroke="#000" stroke-width="2" fill="#f9d2de"/><use xlink:href="#e" transform="matrix(1,0,0,1,325,2160) translate(11 36.1)"/><path d="M370 2101v34.5" stroke="#000" stroke-width="2" fill="none"/><path d="M371 2101h-2v-1h2zM370 2150.5l-4.64-14.25h9.28z"/><path d="M370 2153.75l-6-18.5h12zm-3.26-16.5l3.26 10.03 3.26-10.03z"/><path d="M336 2320c13.25 0 24 13.43 24 30s-10.75 30-24 30h-72c-13.25 0-24-13.43-24-30s10.75-30 24-30z" stroke="#000" stroke-width="2" fill="#99d5ca"/><use xlink:href="#f" transform="matrix(1,0,0,1,245,2325) translate(17.525 17.799999999999997)"/><use xlink:href="#g" transform="matrix(1,0,0,1,245,2325) translate(32.025 39.4)"/><path d="M365.2 2265.2l-1.16 3.33-1.1 2.6-1.03 2.12-.97 1.75-.93 1.46-.9 1.26-.9 1.1-.87.95-.87.86-.88.76-.9.68-.9.64-.96.57-1 .53-1.08.5-1.17.46-1.32.42-1.55.4-1.97.42-3.12.45-10.1 1.2-2.3.48-1.9.5-1.66.56-1.55.6-1.46.68-1.4.75-1.4.84-1.36.96-1.4 1.07-1.4 1.24-1.46 1.43-1.53 1.67-1.62 2-1.73 2.4-.28.43-1.7-1.08.33-.5 1.8-2.48 1.68-2.07 1.6-1.76 1.54-1.5 1.5-1.3 1.48-1.16 1.46-1 1.48-.9 1.5-.8 1.57-.73 1.66-.64 1.78-.6 2-.52 2.44-.5 10.17-1.23 3.04-.43 1.84-.38 1.44-.4 1.2-.4 1.08-.42.97-.44.9-.48.85-.52.83-.57.8-.62.8-.7.8-.77.8-.87.8-1 .84-1.16.88-1.37.92-1.65.98-2 1.05-2.5 1.14-3.24.97-3.33h2.1zm5.8-33.84l-.92 8.3h-2.02l.95-8.52z"/><path d="M371 2231.37l-2-.23.2-1.74.8.6 1.25-.94zM312.04 2305.48l-10.58 10.63 2.3-14.8z"/><path d="M313.72 2305.2L300 2319l3-19.22zm-10.8 8.03l7.45-7.48-5.82-2.94z"/><use xlink:href="#h" transform="matrix(1,0,0,1,352.914500424116,2239.652072699167) translate(0 14.4)"/><path d="M516 2320c13.25 0 24 13.43 24 30s-10.75 30-24 30h-72c-13.25 0-24-13.43-24-30s10.75-30 24-30z" stroke="#000" stroke-width="2" fill="#99d5ca"/><use xlink:href="#i" transform="matrix(1,0,0,1,425,2325) translate(34.25 17.799999999999997)"/><use xlink:href="#j" transform="matrix(1,0,0,1,425,2325) translate(15.549999999999997 39.4)"/><path d="M374.4 2261.37l.84 2.74.85 2.4.86 2.14.87 1.9.9 1.72.9 1.56.9 1.42.9 1.3.95 1.2.94 1.12.97 1.04 1 .98 1 .9 1.06.87 1.1.8 1.13.78 1.2.73 1.25.7 1.34.65 1.42.63 1.54.6 1.68.55 1.85.52 2.05.5 2.35.42 2.73.38 3.3.3 4.3.2h6.8l22.5-.5 4.1.2 3.1.28 2.56.35 2.16.4 1.9.45 1.7.48 1.54.5 1.4.55 1.3.58 1.22.6 1.13.62 1.07.65 1.02.7.97.7.94.76.9.8.86.86.83.9.82.96.38.5-1.58 1.22-.36-.46-.76-.9-.78-.82-.8-.8-.82-.72-.86-.7-.9-.67-.94-.64-1-.6-1.05-.58-1.14-.56-1.2-.54-1.33-.5-1.45-.48-1.6-.46-1.83-.42-2.08-.4-2.46-.33-3.02-.28-3.98-.2-22.44.5h-6.87l-4.4-.2-3.4-.3-2.83-.4-2.43-.46-2.15-.5-1.95-.54-1.76-.6-1.64-.6-1.5-.68-1.43-.7-1.34-.73-1.3-.8-1.2-.8-1.17-.87-1.12-.92-1.08-.96-1.06-1.04-1.03-1.1-1-1.2-1-1.27-.97-1.38-.95-1.5-.94-1.63-.92-1.8-.92-2-.9-2.2-.88-2.5-.86-2.8-.16-.67h2.06zm-3.23-22.4l.05.68h-2l-.05-.6-.17-7.77 2-.05z"/><path d="M370 2230l.9-.68.1 1.9-2 .08-.1-2.12zM478.75 2316l-9.77-11.36 8.55-3.58z"/><path d="M480 2319l-12.68-14.76 11.1-4.63zm-9.37-13.97l6.88 8-.85-10.5zM453.73 2186.56l-.33.1-4.97 1.58-5.55 1.5-6.2 1.4-7 1.26-7.87 1.1-.27-2 7.85-1.08 6.9-1.25 6.12-1.38 5.47-1.48 4.9-1.54.96-.35zm15.5-113l1.8.96 1.78 1.05 1.82 1.17 1.83 1.3 1.83 1.4 1.83 1.56 1.84 1.67 1.8 1.8 1.78 1.92 1.73 2.04 1.68 2.16 1.62 2.26 1.54 2.36 1.43 2.44 1.35 2.5 1.24 2.56 1.13 2.6 1 2.6.9 2.64.77 2.62.64 2.6.53 2.6.4 2.55.3 2.52.18 2.48.08 2.44-.02 2.4-.12 2.34-.2 2.32-.3 2.26-.4 2.2-.5 2.2-.56 2.12-.65 2.1-.73 2.06-.82 2.02-.9 2-1 1.97-1.1 1.94-1.18 1.9-1.3 1.9-1.38 1.88-1.5 1.86-1.63 1.84-1.74 1.83-1.9 1.83-2.03 1.8-2.2 1.8-2.4 1.77-.82.56v-2.44l1.98-1.48 2.14-1.74 1.98-1.74 1.83-1.76 1.7-1.77 1.56-1.78 1.45-1.8 1.35-1.8 1.24-1.83 1.13-1.85 1.05-1.87.96-1.9.87-1.9.8-1.96.7-1.98.64-2.02.55-2.05.45-2.1.38-2.13.3-2.18.2-2.23.1-2.26.03-2.3-.07-2.36-.2-2.4-.28-2.43-.4-2.47-.5-2.5-.63-2.53-.76-2.54-.86-2.55-.98-2.53-1.1-2.5-1.2-2.5-1.3-2.43-1.4-2.36-1.5-2.3-1.57-2.2-1.63-2.08-1.68-1.98-1.72-1.86-1.75-1.75-1.76-1.6-1.78-1.5-1.76-1.35-1.76-1.25-1.74-1.13-1.72-1-1.7-.92-.23-.1.88-1.8z"/><path d="M421.83 2193.5l-2.97.46-.08-.54 1.22-.92-.82-.62 2.33-.37zM466.88 2078.7l-12.74-7.92 14.96-1.08z"/><path d="M467.52 2080.28L451 2070l19.4-1.4zm-10.24-8.73l8.96 5.58 1.56-6.33z"/><use xlink:href="#k" transform="matrix(1,0,0,1,453.7299815265799,2169.991190077454) translate(0 14.4)"/><path d="M480 2420l50 37.5-50 37.5-50-37.5z" stroke="#000" stroke-width="2" fill="#f9d2de"/><use xlink:href="#e" transform="matrix(1,0,0,1,435,2425) translate(11 36.1)"/><path d="M480 2381v19.5" stroke="#000" stroke-width="2" fill="none"/><path d="M481 2381h-2v-1h2zM480 2415.5l-4.64-14.25h9.28z"/><path d="M480 2418.75l-6-18.5h12zm-3.26-16.5l3.26 10.03 3.26-10.03zM567.6 2417.4l-1.07 4.28-1.2 4-1.3 3.67-1.34 3.33-1.4 3-1.38 2.7-1.4 2.4-1.38 2.16-1.36 1.92-1.33 1.7-1.32 1.54-1.28 1.36-1.26 1.22-1.25 1.1-1.22.96-1.2.87-1.18.8-1.17.7-1.16.6-1.16.55-1.15.48-1.13.42-1.15.35-1.16.3-1.16.25-1.18.2-1.2.14-1.2.07-1.23.03-.06-2 1.18-.03 1.12-.08 1.1-.13 1.1-.18 1.06-.24 1.07-.28 1.06-.33 1.06-.4 1.05-.43 1.07-.5 1.08-.58 1.1-.64 1.1-.73 1.12-.82 1.14-.9 1.17-1.04 1.2-1.15 1.22-1.3 1.25-1.45 1.28-1.63 1.3-1.85 1.33-2.07 1.36-2.33 1.35-2.6 1.36-2.93 1.3-3.26 1.27-3.58 1.17-3.9 1.05-4.2.15-.74h2.04zm-9.22-60.83l.9 1 .88 1.08.9 1.2.88 1.33.9 1.46.87 1.63.9 1.8.85 2 .84 2.25.8 2.48.75 2.77.7 3.08.58 3.4.47 3.72.33 4.04.15 4.34v.48h-2v-.46l-.15-4.24-.3-3.95-.48-3.63-.57-3.3-.67-3-.72-2.66-.78-2.4-.8-2.15-.83-1.93-.83-1.72-.85-1.54-.85-1.4-.84-1.24-.82-1.12-.83-1.02-.83-.92-.3-.32 1.4-1.4z"/><path d="M531.96 2458.46l-2.87.88-.3-.94 1.2-.9-.5-.38 1.87-.58zM558.92 2352.57l-3.62 8.53-11.32-9.84z"/><path d="M560.38 2351.7l-4.7 11.06L541 2350zm-5.46 7.74l2.55-6-10.5-.9z"/><use xlink:href="#h" transform="matrix(1,0,0,1,553.8434965065669,2394.622438461168) translate(0 14.4)"/><path d="M668.6 2251.42l.7 10.2.3 10.35-.14 10.45-.58 10.48-1 10.45-1.46 10.32-1.85 10.14-2.24 9.88-2.58 9.54-2.9 9.17-3.18 8.74-3.4 8.3-3.63 7.83-3.77 7.36-3.9 6.88-4 6.43-4.08 5.96-4.15 5.53-4.17 5.12-4.2 4.73-4.2 4.36-4.2 4.02-4.23 3.7-4.2 3.4-4.23 3.1-4.2 2.85-4.22 2.6-4.2 2.36-4.23 2.14-4.24 1.92-4.25 1.72-4.27 1.53-4.3 1.33-4.34 1.15-4.4.97-4.44.8-4.52.6-4.6.4-4.66.24-4.76.04-.02-2 4.72-.04 4.6-.22 4.5-.42 4.43-.6 4.38-.76 4.3-.95 4.27-1.12 4.22-1.3 4.2-1.5 4.17-1.7 4.16-1.9 4.15-2.08 4.14-2.32 4.13-2.55 4.14-2.8 4.14-3.06 4.16-3.34 4.16-3.64 4.15-3.98 4.15-4.3 4.14-4.67 4.12-5.05 4.08-5.47 4.03-5.9 3.95-6.34 3.86-6.82 3.75-7.28 3.57-7.76 3.38-8.22 3.15-8.67 2.88-9.1 2.56-9.45 2.2-9.8 1.85-10.05 1.43-10.24 1-10.35.6-10.4.12-10.37-.3-10.27-.7-10.1-.95-8.46h2zm-193.15-182.04l11.9.9 11.13 1.32 10.44 1.7 9.8 2 9.27 2.3 8.75 2.57 8.3 2.82 7.9 3.05 7.54 3.28 7.18 3.5 6.87 3.7 6.6 3.93 6.3 4.13 6.08 4.33 5.84 4.55 5.6 4.77 5.4 5 5.2 5.23 5.02 5.48 4.8 5.72 4.6 6 4.44 6.25 4.22 6.55 4.02 6.85 3.8 7.15 3.6 7.47 3.34 7.8 3.1 8.14 2.82 8.46 2.53 8.8 2.03 8.38h-2.06l-1.9-7.87-2.5-8.72-2.8-8.4-3.07-8.05-3.3-7.72-3.56-7.4-3.76-7.08-3.98-6.77-4.18-6.48-4.38-6.2-4.56-5.9-4.76-5.67-4.94-5.42-5.14-5.17-5.35-4.95-5.55-4.72-5.77-4.5-6-4.3-6.25-4.07-6.5-3.88-6.8-3.67-7.13-3.45-7.45-3.25-7.82-3.03-8.23-2.8-8.68-2.54-9.18-2.3-9.74-1.98-10.36-1.66-11.04-1.32-11.82-.9-6.14-.2.07-2z"/><path d="M531.73 2458.5l-3 .16v-.2l1.27-.96-1.13-.85 2.75-.15zM468.46 2074.8l-14.22-4.77 14.3-4.5z"/><path d="M469.45 2076.18L451 2070l18.56-5.84zm-11.98-6.12l10 3.35.06-6.5z"/><g><use xlink:href="#k" transform="matrix(1,0,0,1,653.5657601482282,2221.54052539842) translate(0 14.4)"/></g><path d="M140 1920h428v40H140z" stroke="#000" stroke-opacity="0" stroke-width="2" fill="#fff" fill-opacity="0"/><g><use xlink:href="#l" transform="matrix(1,0,0,1,145,1925) translate(0 21.333333333333336)"/><use xlink:href="#m" transform="matrix(1,0,0,1,145,1925) translate(93.18518518518519 21.333333333333336)"/><use xlink:href="#n" transform="matrix(1,0,0,1,145,1925) translate(147.85185185185185 21.333333333333336)"/><use xlink:href="#o" transform="matrix(1,0,0,1,145,1925) translate(246.44444444444446 21.333333333333336)"/></g><defs><path d="M230 0l2-204L168 0h-37L68-204 70 0H24v-248h70l56 185 57-185h69V0h-46" id="p"/><path d="M133-34C117-15 103 5 69 4 32 3 11-16 11-54c-1-60 55-63 116-61 1-26-3-47-28-47-18 1-26 9-28 27l-52-2c7-38 36-58 82-57s74 22 75 68l1 82c-1 14 12 18 25 15v27c-30 8-71 5-69-32zm-48 3c29 0 43-24 42-57-32 0-66-3-65 30 0 17 8 27 23 27" id="q"/><path d="M137-138c1-29-70-34-71-4 15 46 118 7 119 86 1 83-164 76-172 9l43-7c4 19 20 25 44 25 33 8 57-30 24-41C81-84 22-81 20-136c-2-80 154-74 161-7" id="r"/><path d="M115-3C79 11 28 4 28-45v-112H4v-33h27l15-45h31v45h36v33H77v99c-1 23 16 31 38 25v30" id="s"/><path d="M185-48c-13 30-37 53-82 52C43 2 14-33 14-96s30-98 90-98c62 0 83 45 84 108H66c0 31 8 55 39 56 18 0 30-7 34-22zm-45-69c5-46-57-63-70-21-2 6-4 13-4 21h74" id="t"/><path d="M135-150c-39-12-60 13-60 57V0H25l-1-190h47c2 13-1 29 3 40 6-28 27-53 61-41v41" id="u"/><g id="a"><use transform="matrix(0.05,0,0,0.05,0,0)" xlink:href="#p"/><use transform="matrix(0.05,0,0,0.05,14.950000000000001,0)" xlink:href="#q"/><use transform="matrix(0.05,0,0,0.05,24.950000000000003,0)" xlink:href="#r"/><use transform="matrix(0.05,0,0,0.05,34.95,0)" xlink:href="#s"/><use transform="matrix(0.05,0,0,0.05,40.900000000000006,0)" xlink:href="#t"/><use transform="matrix(0.05,0,0,0.05,50.900000000000006,0)" xlink:href="#u"/></g><path d="M24-248c93 1 206-16 204 79-1 75-69 88-152 82V0H24v-248zm52 121c47 0 100 7 100-41 0-47-54-39-100-39v80" id="v"/><path d="M110-194c64 0 96 36 96 99 0 64-35 99-97 99-61 0-95-36-95-99 0-62 34-99 96-99zm-1 164c35 0 45-28 45-65 0-40-10-65-43-65-34 0-45 26-45 65 0 36 10 65 43 65" id="w"/><path d="M190-63c-7 42-38 67-86 67-59 0-84-38-90-98-12-110 154-137 174-36l-49 2c-2-19-15-32-35-32-30 0-35 28-38 64-6 74 65 87 74 30" id="x"/><g id="b"><use transform="matrix(0.05,0,0,0.05,0,0)" xlink:href="#v"/><use transform="matrix(0.05,0,0,0.05,12,0)" xlink:href="#u"/><use transform="matrix(0.05,0,0,0.05,19,0)" xlink:href="#w"/><use transform="matrix(0.05,0,0,0.05,29.950000000000003,0)" xlink:href="#x"/><use transform="matrix(0.05,0,0,0.05,39.95,0)" xlink:href="#t"/><use transform="matrix(0.05,0,0,0.05,49.95,0)" xlink:href="#r"/><use transform="matrix(0.05,0,0,0.05,59.95,0)" xlink:href="#r"/></g><path d="M160-131c35 5 61 23 61 61C221 17 115-2 30 0v-248c76 3 177-17 177 60 0 33-19 50-47 57zm-97-11c50-1 110 9 110-42 0-47-63-36-110-37v79zm0 115c55-2 124 14 124-45 0-56-70-42-124-44v89" id="y"/><path d="M100-194c63 0 86 42 84 106H49c0 40 14 67 53 68 26 1 43-12 49-29l28 8c-11 28-37 45-77 45C44 4 14-33 15-96c1-61 26-98 85-98zm52 81c6-60-76-77-97-28-3 7-6 17-6 28h103" id="z"/><path d="M96-169c-40 0-48 33-48 73s9 75 48 75c24 0 41-14 43-38l32 2c-6 37-31 61-74 61-59 0-76-41-82-99-10-93 101-131 147-64 4 7 5 14 7 22l-32 3c-4-21-16-35-41-35" id="A"/><path d="M100-194c62-1 85 37 85 99 1 63-27 99-86 99S16-35 15-95c0-66 28-99 85-99zM99-20c44 1 53-31 53-75 0-43-8-75-51-75s-53 32-53 75 10 74 51 75" id="B"/><path d="M210-169c-67 3-38 105-44 169h-31v-121c0-29-5-50-35-48C34-165 62-65 56 0H25l-1-190h30c1 10-1 24 2 32 10-44 99-50 107 0 11-21 27-35 58-36 85-2 47 119 55 194h-31v-121c0-29-5-49-35-48" id="C"/><g id="c"><use transform="matrix(0.05,0,0,0.05,0,0)" xlink:href="#y"/><use transform="matrix(0.05,0,0,0.05,12,0)" xlink:href="#z"/><use transform="matrix(0.05,0,0,0.05,22,0)" xlink:href="#A"/><use transform="matrix(0.05,0,0,0.05,31,0)" xlink:href="#B"/><use transform="matrix(0.05,0,0,0.05,41,0)" xlink:href="#C"/><use transform="matrix(0.05,0,0,0.05,55.95,0)" xlink:href="#z"/></g><path d="M240 0l2-218c-23 76-54 145-80 218h-23L58-218 59 0H30v-248h44l77 211c21-75 51-140 76-211h43V0h-30" id="D"/><path d="M141-36C126-15 110 5 73 4 37 3 15-17 15-53c-1-64 63-63 125-63 3-35-9-54-41-54-24 1-41 7-42 31l-33-3c5-37 33-52 76-52 45 0 72 20 72 64v82c-1 20 7 32 28 27v20c-31 9-61-2-59-35zM48-53c0 20 12 33 32 33 41-3 63-29 60-74-43 2-92-5-92 41" id="E"/><path d="M135-143c-3-34-86-38-87 0 15 53 115 12 119 90S17 21 10-45l28-5c4 36 97 45 98 0-10-56-113-15-118-90-4-57 82-63 122-42 12 7 21 19 24 35" id="F"/><path d="M59-47c-2 24 18 29 38 22v24C64 9 27 4 27-40v-127H5v-23h24l9-43h21v43h35v23H59v120" id="G"/><path d="M114-163C36-179 61-72 57 0H25l-1-190h30c1 12-1 29 2 39 6-27 23-49 58-41v29" id="H"/><g id="d"><use transform="matrix(0.05,0,0,0.05,0,0)" xlink:href="#D"/><use transform="matrix(0.05,0,0,0.05,14.950000000000001,0)" xlink:href="#E"/><use transform="matrix(0.05,0,0,0.05,24.950000000000003,0)" xlink:href="#F"/><use transform="matrix(0.05,0,0,0.05,33.95,0)" xlink:href="#G"/><use transform="matrix(0.05,0,0,0.05,38.95,0)" xlink:href="#z"/><use transform="matrix(0.05,0,0,0.05,48.95,0)" xlink:href="#H"/></g><path d="M185-189c-5-48-123-54-124 2 14 75 158 14 163 119 3 78-121 87-175 55-17-10-28-26-33-46l33-7c5 56 141 63 141-1 0-78-155-14-162-118-5-82 145-84 179-34 5 7 8 16 11 25" id="I"/><path d="M84 4C-5 8 30-112 23-190h32v120c0 31 7 50 39 49 72-2 45-101 50-169h31l1 190h-30c-1-10 1-25-2-33-11 22-28 36-60 37" id="J"/><g id="e"><use transform="matrix(0.05,0,0,0.05,0,0)" xlink:href="#I"/><use transform="matrix(0.05,0,0,0.05,12,0)" xlink:href="#J"/><use transform="matrix(0.05,0,0,0.05,22,0)" xlink:href="#A"/><use transform="matrix(0.05,0,0,0.05,31,0)" xlink:href="#A"/><use transform="matrix(0.05,0,0,0.05,40,0)" xlink:href="#z"/><use transform="matrix(0.05,0,0,0.05,50,0)" xlink:href="#F"/><use transform="matrix(0.05,0,0,0.05,59,0)" xlink:href="#F"/></g><path d="M106-169C34-169 62-67 57 0H25v-261h32l-1 103c12-21 28-36 61-36 89 0 53 116 60 194h-32v-121c2-32-8-49-39-48" id="K"/><path d="M85-194c31 0 48 13 60 33l-1-100h32l1 261h-30c-2-10 0-23-3-31C134-8 116 4 85 4 32 4 16-35 15-94c0-66 23-100 70-100zm9 24c-40 0-46 34-46 75 0 40 6 74 45 74 42 0 51-32 51-76 0-42-9-74-50-73" id="L"/><path d="M24 0v-261h32V0H24" id="M"/><g id="f"><use transform="matrix(0.05,0,0,0.05,0,0)" xlink:href="#I"/><use transform="matrix(0.05,0,0,0.05,12,0)" xlink:href="#A"/><use transform="matrix(0.05,0,0,0.05,21,0)" xlink:href="#K"/><use transform="matrix(0.05,0,0,0.05,31,0)" xlink:href="#z"/><use transform="matrix(0.05,0,0,0.05,41,0)" xlink:href="#L"/><use transform="matrix(0.05,0,0,0.05,51,0)" xlink:href="#J"/><use transform="matrix(0.05,0,0,0.05,61,0)" xlink:href="#M"/><use transform="matrix(0.05,0,0,0.05,64.95,0)" xlink:href="#z"/></g><path d="M127-220V0H93v-220H8v-28h204v28h-85" id="N"/><path d="M143 0L79-87 56-68V0H24v-261h32v163l83-92h37l-77 82L181 0h-38" id="O"/><g id="g"><use transform="matrix(0.05,0,0,0.05,0,0)" xlink:href="#N"/><use transform="matrix(0.05,0,0,0.05,8.950000000000001,0)" xlink:href="#E"/><use transform="matrix(0.05,0,0,0.05,18.950000000000003,0)" xlink:href="#F"/><use transform="matrix(0.05,0,0,0.05,27.950000000000003,0)" xlink:href="#O"/><use transform="matrix(0.05,0,0,0.05,36.95,0)" xlink:href="#F"/></g><path d="M137-103V0h-34v-103L8-248h37l75 118 75-118h37" id="P"/><g id="h"><use transform="matrix(0.05,0,0,0.05,0,0)" xlink:href="#P"/><use transform="matrix(0.05,0,0,0.05,10.35,0)" xlink:href="#z"/><use transform="matrix(0.05,0,0,0.05,20.35,0)" xlink:href="#F"/></g><path d="M266 0h-40l-56-210L115 0H75L2-248h35L96-30l15-64 43-154h32l59 218 59-218h35" id="Q"/><path d="M24-231v-30h32v30H24zM24 0v-190h32V0H24" id="R"/><g id="i"><use transform="matrix(0.05,0,0,0.05,0,0)" xlink:href="#Q"/><use transform="matrix(0.05,0,0,0.05,16.599999999999998,0)" xlink:href="#H"/><use transform="matrix(0.05,0,0,0.05,22.549999999999997,0)" xlink:href="#R"/><use transform="matrix(0.05,0,0,0.05,26.499999999999996,0)" xlink:href="#G"/><use transform="matrix(0.05,0,0,0.05,31.499999999999996,0)" xlink:href="#z"/></g><path d="M197 0v-115H63V0H30v-248h33v105h134v-105h34V0h-34" id="S"/><path d="M115-194c53 0 69 39 70 98 0 66-23 100-70 100C84 3 66-7 56-30L54 0H23l1-261h32v101c10-23 28-34 59-34zm-8 174c40 0 45-34 45-75 0-40-5-75-45-74-42 0-51 32-51 76 0 43 10 73 51 73" id="T"/><g id="j"><use transform="matrix(0.05,0,0,0.05,0,0)" xlink:href="#S"/><use transform="matrix(0.05,0,0,0.05,12.950000000000001,0)" xlink:href="#z"/><use transform="matrix(0.05,0,0,0.05,22.950000000000003,0)" xlink:href="#E"/><use transform="matrix(0.05,0,0,0.05,32.95,0)" xlink:href="#H"/><use transform="matrix(0.05,0,0,0.05,38.900000000000006,0)" xlink:href="#G"/><use transform="matrix(0.05,0,0,0.05,43.900000000000006,0)" xlink:href="#T"/><use transform="matrix(0.05,0,0,0.05,53.900000000000006,0)" xlink:href="#z"/><use transform="matrix(0.05,0,0,0.05,63.900000000000006,0)" xlink:href="#E"/><use transform="matrix(0.05,0,0,0.05,73.9,0)" xlink:href="#G"/></g><path d="M190 0L58-211 59 0H30v-248h39L202-35l-2-213h31V0h-41" id="U"/><g id="k"><use transform="matrix(0.05,0,0,0.05,0,0)" xlink:href="#U"/><use transform="matrix(0.05,0,0,0.05,12.950000000000001,0)" xlink:href="#B"/></g><g id="l"><use transform="matrix(0.07407407407407408,0,0,0.07407407407407408,0,0)" xlink:href="#p"/><use transform="matrix(0.07407407407407408,0,0,0.07407407407407408,22.148148148148152,0)" xlink:href="#q"/><use transform="matrix(0.07407407407407408,0,0,0.07407407407407408,36.96296296296297,0)" xlink:href="#r"/><use transform="matrix(0.07407407407407408,0,0,0.07407407407407408,51.777777777777786,0)" xlink:href="#s"/><use transform="matrix(0.07407407407407408,0,0,0.07407407407407408,60.5925925925926,0)" xlink:href="#t"/><use transform="matrix(0.07407407407407408,0,0,0.07407407407407408,75.40740740740742,0)" xlink:href="#u"/></g><path d="M135-194c87-1 58 113 63 194h-50c-7-57 23-157-34-157-59 0-34 97-39 157H25l-1-190h47c2 12-1 28 3 38 12-26 28-41 61-42" id="V"/><path d="M88-194c31-1 46 15 58 34l-1-101h50l1 261h-48c-2-10 0-23-3-31C134-8 116 4 84 4 32 4 16-41 15-95c0-56 19-97 73-99zm17 164c33 0 40-30 41-66 1-37-9-64-41-64s-38 30-39 65c0 43 13 65 39 65" id="W"/><g id="m"><use transform="matrix(0.07407407407407408,0,0,0.07407407407407408,0,0)" xlink:href="#q"/><use transform="matrix(0.07407407407407408,0,0,0.07407407407407408,14.814814814814817,0)" xlink:href="#V"/><use transform="matrix(0.07407407407407408,0,0,0.07407407407407408,31.03703703703704,0)" xlink:href="#W"/></g><path d="M275 0h-61l-44-196L126 0H64L0-248h53L97-49l45-199h58l43 199 44-199h52" id="X"/><path d="M147 0L96-86 75-71V0H25v-261h50v150l67-79h53l-66 74L201 0h-54" id="Y"/><g id="n"><use transform="matrix(0.07407407407407408,0,0,0.07407407407407408,0,0)" xlink:href="#X"/><use transform="matrix(0.07407407407407408,0,0,0.07407407407407408,24.592592592592595,0)" xlink:href="#w"/><use transform="matrix(0.07407407407407408,0,0,0.07407407407407408,40.81481481481482,0)" xlink:href="#u"/><use transform="matrix(0.07407407407407408,0,0,0.07407407407407408,51.1851851851852,0)" xlink:href="#Y"/><use transform="matrix(0.07407407407407408,0,0,0.07407407407407408,66.00000000000001,0)" xlink:href="#t"/><use transform="matrix(0.07407407407407408,0,0,0.07407407407407408,80.81481481481484,0)" xlink:href="#u"/></g><g id="o"><use transform="matrix(0.07407407407407408,0,0,0.07407407407407408,0,0)" xlink:href="#v"/><use transform="matrix(0.07407407407407408,0,0,0.07407407407407408,17.77777777777778,0)" xlink:href="#u"/><use transform="matrix(0.07407407407407408,0,0,0.07407407407407408,28.148148148148152,0)" xlink:href="#w"/><use transform="matrix(0.07407407407407408,0,0,0.07407407407407408,44.37037037037039,0)" xlink:href="#x"/><use transform="matrix(0.07407407407407408,0,0,0.07407407407407408,59.185185185185205,0)" xlink:href="#t"/><use transform="matrix(0.07407407407407408,0,0,0.07407407407407408,74.00000000000001,0)" xlink:href="#r"/><use transform="matrix(0.07407407407407408,0,0,0.07407407407407408,88.81481481481484,0)" xlink:href="#r"/><use transform="matrix(0.07407407407407408,0,0,0.07407407407407408,103.62962962962965,0)" xlink:href="#t"/><use transform="matrix(0.07407407407407408,0,0,0.07407407407407408,118.44444444444446,0)" xlink:href="#r"/></g></defs></g></svg>