<svg xmlns="http://www.w3.org/2000/svg" xmlns:xlink="http://www.w3.org/1999/xlink" xmlns:lucid="lucid" width="551" height="591"><g transform="translate(-183 -2763)" lucid:page-tab-id="0_0"><path d="M200 2780h520v560H200z" stroke="#000" stroke-width="2" fill-opacity="0"/><use xlink:href="#a" transform="matrix(1,0,0,1,205,2785) translate(0 14.4)"/><use xlink:href="#b" transform="matrix(1,0,0,1,205,2785) translate(62.900000000000006 14.4)"/><path d="M478 2820c17.67 0 32 13.43 32 30s-14.33 30-32 30h-96c-17.67 0-32-13.43-32-30s14.33-30 32-30z" stroke="#000" stroke-width="2" fill="#99d5ca"/><use xlink:href="#c" transform="matrix(1,0,0,1,355,2825) translate(12.074999999999996 28.6)"/><use xlink:href="#d" transform="matrix(1,0,0,1,355,2825) translate(83.025 28.6)"/><path d="M430 2935l50 37.5-50 37.5-50-37.5z" stroke="#000" stroke-width="2" fill="#f9d2de"/><use xlink:href="#e" transform="matrix(1,0,0,1,385,2940) translate(11 36.1)"/><path d="M430 2881v34.5" stroke="#000" stroke-width="2" fill="none"/><path d="M431 2881h-2v-1h2zM430 2930.5l-4.64-14.25h9.28z"/><path d="M430 2933.75l-6-18.5h12zm-3.26-16.5l3.26 10.03 3.26-10.03zM429.2 3037.7l-.8 4.33-.82 3.24-.84 2.6-.86 2.2-.9 1.87-.9 1.68-.97 1.5-1 1.4-1.08 1.3-1.14 1.2-1.25 1.17-1.36 1.1-1.5 1.1-1.7 1.05-1.92 1.05-2.24 1.03-2.66 1.04-3.27 1.04-4.14 1.04-5.53 1-7.9.92-12.66.66-4.5-.04v-2l4.46.04 12.53-.65 7.78-.9 5.4-1 4.03-1 3.15-1 2.54-.98 2.13-1 1.82-.98 1.58-1 1.4-1 1.26-1.04 1.16-1.07 1.07-1.12 1-1.2.93-1.28.9-1.4.85-1.57.84-1.77.8-2.06.8-2.48.8-3.12.8-4.22.7-5.7h2zM431.06 3010.08h-2l.03-.76.9.68 1.1-.83zM368.46 3074.8l-14.22-4.77 14.3-4.5z"/><path d="M369.44 3076.2L351 3070l18.56-5.83zm-11.97-6.14l10 3.36.06-6.52z"/><use xlink:href="#f" transform="matrix(1,0,0,1,414.8471687126506,3010.08180733222) translate(0 14.4)"/><path d="M466 3100c13.25 0 24 13.43 24 30s-10.75 30-24 30h-72c-13.25 0-24-13.43-24-30s10.75-30 24-30z" stroke="#000" stroke-width="2" fill="#99d5ca"/><use xlink:href="#g" transform="matrix(1,0,0,1,375,3105) translate(34.25 17.799999999999997)"/><use xlink:href="#h" transform="matrix(1,0,0,1,375,3105) translate(15.549999999999997 39.4)"/><path d="M513.73 2966.56l-.33.1-4.97 1.58-5.55 1.5-6.2 1.4-7 1.26-7.87 1.1-.27-2 7.85-1.08 6.9-1.25 6.12-1.38 5.47-1.48 4.9-1.54.96-.35zm15.5-113l1.8.96 1.78 1.05 1.82 1.17 1.83 1.3 1.83 1.4 1.83 1.56 1.84 1.67 1.8 1.8 1.78 1.92 1.73 2.04 1.68 2.16 1.62 2.26 1.54 2.36 1.43 2.44 1.35 2.5 1.24 2.56 1.13 2.6 1 2.6.9 2.64.77 2.62.64 2.6.53 2.6.4 2.55.3 2.52.18 2.48.08 2.44-.02 2.4-.12 2.34-.2 2.32-.3 2.26-.4 2.2-.5 2.2-.56 2.12-.65 2.1-.73 2.06-.82 2.02-.9 2-1 1.97-1.1 1.94-1.18 1.9-1.3 1.9-1.38 1.88-1.5 1.86-1.63 1.84-1.74 1.83-1.9 1.83-2.03 1.8-2.2 1.8-2.4 1.77-.82.56v-2.44l1.98-1.48 2.14-1.74 1.98-1.74 1.83-1.76 1.7-1.77 1.56-1.78 1.45-1.8 1.35-1.8 1.24-1.83 1.13-1.85 1.05-1.87.96-1.9.87-1.9.8-1.96.7-1.98.64-2.02.55-2.05.45-2.1.38-2.13.3-2.18.2-2.23.1-2.26.03-2.3-.07-2.36-.2-2.4-.28-2.43-.4-2.47-.5-2.5-.63-2.53-.76-2.54-.86-2.55-.98-2.53-1.1-2.5-1.2-2.5-1.3-2.43-1.4-2.36-1.5-2.3-1.57-2.2-1.63-2.08-1.68-1.98-1.72-1.86-1.75-1.75-1.76-1.6-1.78-1.5-1.76-1.35-1.76-1.25-1.74-1.13-1.72-1-1.7-.92-.23-.1.88-1.8z"/><path d="M481.83 2973.5l-2.97.46-.08-.54 1.22-.92-.82-.62 2.33-.37zM526.88 2858.7l-12.74-7.92 14.96-1.08z"/><path d="M527.52 2860.28L511 2850l19.4-1.4zm-10.24-8.73l8.96 5.58 1.56-6.33z"/><use xlink:href="#i" transform="matrix(1,0,0,1,513.7299815265798,2949.9911900774537) translate(0 14.4)"/><path d="M430 3200l50 37.5-50 37.5-50-37.5z" stroke="#000" stroke-width="2" fill="#f9d2de"/><use xlink:href="#e" transform="matrix(1,0,0,1,385,3205) translate(11 36.1)"/><path d="M430 3161v19.5" stroke="#000" stroke-width="2" fill="none"/><path d="M431 3161h-2v-1h2zM430 3195.5l-4.64-14.25h9.28z"/><path d="M430 3198.75l-6-18.5h12zm-3.26-16.5l3.26 10.03 3.26-10.03zM316.68 3197.98l.8 2.3.9 2.23 1 2.2 1.08 2.12 1.2 2.08 1.27 2 1.37 1.96 1.47 1.9 1.56 1.82 1.66 1.76 1.74 1.7 1.85 1.65 1.95 1.56 2.06 1.52 2.2 1.44 2.3 1.38 2.43 1.3 2.58 1.23 2.73 1.15 2.9 1.07 3.07.97 3.28.87 3.5.74 3.74.63 4.02.5 4.32.3 4.7.13-.06 2-4.74-.13-4.4-.32-4.12-.5-3.84-.64-3.6-.77-3.35-.9-3.17-1-2.98-1.1-2.8-1.17-2.67-1.27-2.52-1.36-2.37-1.43-2.26-1.48-2.14-1.57-2.03-1.63-1.92-1.7-1.82-1.77-1.72-1.84-1.62-1.9-1.53-1.95-1.43-2.03-1.33-2.1-1.24-2.14-1.13-2.2-1.04-2.28-.93-2.33-.82-2.37-.23-.77h2.1zm34.54-64.92l-2.06.6-2.38.8-2.27.87-2.17.97-2.1 1.04-2 1.12-1.93 1.2-1.85 1.27-1.77 1.35-1.7 1.43-1.64 1.5-1.56 1.58-1.5 1.65-1.42 1.72-1.34 1.8-1.27 1.88-1.2 1.94-1.1 2.02-1.03 2.08-.94 2.16-.84 2.22-.75 2.27-.65 2.33-.54 2.37-.42 2.4-.32 2.45-.02.15h-2l.03-.36.33-2.54.45-2.5.56-2.46.68-2.42.77-2.36.88-2.32.97-2.24 1.07-2.17 1.15-2.1 1.25-2.03 1.32-1.95 1.4-1.88 1.47-1.8 1.55-1.72 1.63-1.64 1.7-1.56 1.78-1.48 1.85-1.4 1.93-1.33 2-1.26 2.1-1.17 2.18-1.08 2.26-1.02 2.36-.9 2.46-.84 2.1-.6z"/><path d="M381.04 3236.72l-1.04.78 1.26.95-.02.3-3-.25.17-2zM365.8 3130.37l-13.65 6.26-1.07-9.2z"/><path d="M369 3130l-17.68 8.1-1.4-11.93zm-16 5.15l9.57-4.4-10.34-2.08z"/><use xlink:href="#f" transform="matrix(1,0,0,1,298.7435574291709,3176.232048165141) translate(0 14.4)"/><path d="M491.63 3236.8l5.05-.06v2l-5.07.06-9.96-.3.06-2zM534.2 2850l8.98 1 8.5 1.35 8.07 1.6 7.68 1.88 7.32 2.12 7 2.34 6.68 2.54 6.42 2.77 6.16 2.97 5.93 3.17 5.7 3.36 5.5 3.56 5.32 3.76 5.13 3.97 4.95 4.15 4.78 4.4 4.62 4.6 4.45 4.8 4.3 5.08 4.12 5.3 3.95 5.56 3.8 5.8 3.6 6.1 3.42 6.35 3.23 6.65 3.02 6.94 2.8 7.24 2.53 7.53 2.3 7.83 2 8.12 1.7 8.4 1.38 8.64 1.04 8.88.68 9.1.3 9.3-.08 9.42-.48 9.52-.9 9.58-1.3 9.58-1.7 9.54-2.1 9.44-2.47 9.3-2.85 9.13-3.2 8.9-3.5 8.65-3.82 8.37-4.1 8.08-4.36 7.76-4.6 7.44-4.8 7.1-5.03 6.8-5.2 6.44-5.38 6.12-5.55 5.8-5.7 5.48-5.85 5.17-6 4.88-6.13 4.57-6.3 4.3-6.42 4-6.6 3.72-6.74 3.45-6.9 3.18-7.1 2.9-7.3 2.64-7.48 2.36-7.72 2.08-7.96 1.8-8.23 1.5-8.07 1.1v-2l7.77-1.1 8.14-1.47 7.88-1.76 7.64-2.06 7.4-2.33 7.22-2.6 7.02-2.9 6.84-3.13 6.67-3.42 6.53-3.68 6.36-3.96 6.2-4.24 6.08-4.52 5.93-4.82 5.8-5.1 5.63-5.44 5.5-5.73 5.3-6.05 5.16-6.38 4.96-6.7 4.77-7.05 4.55-7.37 4.32-7.7 4.06-8 3.78-8.3 3.48-8.57 3.17-8.82 2.8-9.05 2.46-9.2 2.08-9.37 1.68-9.46 1.3-9.5.87-9.5.48-9.43.08-9.34-.3-9.2-.68-9.03-1.03-8.8-1.37-8.57-1.7-8.3-1.97-8.04-2.26-7.75-2.52-7.44-2.75-7.16-3-6.86-3.18-6.58-3.4-6.3-3.56-6-3.74-5.75-3.92-5.47-4.07-5.24-4.23-5-4.4-4.78-4.55-4.54-4.7-4.32-4.9-4.12-5.06-3.9-5.24-3.72-5.43-3.52-5.65-3.32-5.85-3.12-6.08-2.93-6.34-2.73-6.62-2.53-6.9-2.3-7.24-2.1-7.6-1.86-8-1.58-8.4-1.32-8.92-1.02-4.85-.35.14-2z"/><path d="M481.66 3238.5l-2.93-.05 1.27-.95-1.3-.98 3-.02zM528.33 2855.24l-14.1-5.13 14.42-4.12z"/><path d="M529.28 2856.65L511 2850l18.7-5.36zm-11.8-6.42l9.9 3.6.23-6.5z"/><path d="M250 3040h100v60H250z" stroke="#000" stroke-width="2" fill="#ffeca9"/><use xlink:href="#j" transform="matrix(1,0,0,1,255,3045) translate(25 17.799999999999997)"/><use xlink:href="#k" transform="matrix(1,0,0,1,255,3045) translate(2.549999999999997 39.4)"/><use xlink:href="#l" transform="matrix(1,0,0,1,255,3045) translate(45.5 39.4)"/><path d="M431 3080.76h-2v-49.08h2zM431 3010.08h-2v-.83l1 .75 1-.75zM430 3095.76l-4.64-14.26h9.28z"/><path d="M430 3099l-6-18.5h12zm-3.26-16.5l3.26 10.03 3.26-10.03z"/><path d="M590 3260h100v60H590z" stroke="#000" stroke-width="2" fill="#ffeca9"/><use xlink:href="#j" transform="matrix(1,0,0,1,595,3265) translate(25 17.799999999999997)"/><use xlink:href="#m" transform="matrix(1,0,0,1,595,3265) translate(3.0249999999999986 39.4)"/><use xlink:href="#l" transform="matrix(1,0,0,1,595,3265) translate(45.025 39.4)"/><path d="M520.77 3240.1l1.77.7 1.6.72 1.44.74 1.32.76 1.2.78 1.14.8 1.06.82 1 .85.94.9.9.92.87.97.86 1.05.83 1.14.8 1.25.85 1.4.87 1.65.96 2.03 1.25 2.98 4.1 10.6.87 1.84.78 1.46.73 1.24.73 1.08.7.97.73.9.73.82.74.78.78.73.82.7.87.68.93.65 1 .64 1.07.62 1.17.6 1.3.6 1.42.56 1.6.56 1.82.54 2.1.52 2.43.48 2.88.43h.16l-.2 2-.22-.02-2.97-.44-2.52-.5-2.18-.55-1.92-.56-1.7-.6-1.5-.6-1.38-.64-1.26-.64-1.15-.66-1.08-.7-1-.7-.94-.72-.9-.77-.84-.8-.82-.84-.8-.9-.77-.96-.76-1.05-.78-1.16-.78-1.32-.83-1.54-.9-1.96-4.13-10.63-1.22-2.9-.92-1.95-.83-1.56-.78-1.33-.78-1.17-.77-1.06-.8-.98-.8-.92-.83-.86-.88-.82-.92-.8-1-.76-1.04-.74-1.14-.73-1.24-.7-1.36-.7-1.5-.7-1.7-.67-.43-.15v-2.1zm-24.1-3.9v2l-6.04-.05-8.92.35-.07-2 8.97-.35z"/><path d="M481.7 3238.5l-3 .06 1.3-1.06-1.26-.94 2.9-.06zM585.76 3289.92l-14.37 4.3.22-9.28z"/><path d="M589 3290l-18.64 5.56.3-12.02zm-16.58 2.86l10.1-3.02-9.94-3.5z"/><g><use xlink:href="#i" transform="matrix(1,0,0,1,496.6768979947335,3227.2906770412483) translate(0 14.4)"/></g><defs><path d="M230 0l2-204L168 0h-37L68-204 70 0H24v-248h70l56 185 57-185h69V0h-46" id="n"/><path d="M133-34C117-15 103 5 69 4 32 3 11-16 11-54c-1-60 55-63 116-61 1-26-3-47-28-47-18 1-26 9-28 27l-52-2c7-38 36-58 82-57s74 22 75 68l1 82c-1 14 12 18 25 15v27c-30 8-71 5-69-32zm-48 3c29 0 43-24 42-57-32 0-66-3-65 30 0 17 8 27 23 27" id="o"/><path d="M137-138c1-29-70-34-71-4 15 46 118 7 119 86 1 83-164 76-172 9l43-7c4 19 20 25 44 25 33 8 57-30 24-41C81-84 22-81 20-136c-2-80 154-74 161-7" id="p"/><path d="M115-3C79 11 28 4 28-45v-112H4v-33h27l15-45h31v45h36v33H77v99c-1 23 16 31 38 25v30" id="q"/><path d="M185-48c-13 30-37 53-82 52C43 2 14-33 14-96s30-98 90-98c62 0 83 45 84 108H66c0 31 8 55 39 56 18 0 30-7 34-22zm-45-69c5-46-57-63-70-21-2 6-4 13-4 21h74" id="r"/><path d="M135-150c-39-12-60 13-60 57V0H25l-1-190h47c2 13-1 29 3 40 6-28 27-53 61-41v41" id="s"/><g id="a"><use transform="matrix(0.05,0,0,0.05,0,0)" xlink:href="#n"/><use transform="matrix(0.05,0,0,0.05,14.950000000000001,0)" xlink:href="#o"/><use transform="matrix(0.05,0,0,0.05,24.950000000000003,0)" xlink:href="#p"/><use transform="matrix(0.05,0,0,0.05,34.95,0)" xlink:href="#q"/><use transform="matrix(0.05,0,0,0.05,40.900000000000006,0)" xlink:href="#r"/><use transform="matrix(0.05,0,0,0.05,50.900000000000006,0)" xlink:href="#s"/></g><path d="M24-248c93 1 206-16 204 79-1 75-69 88-152 82V0H24v-248zm52 121c47 0 100 7 100-41 0-47-54-39-100-39v80" id="t"/><path d="M110-194c64 0 96 36 96 99 0 64-35 99-97 99-61 0-95-36-95-99 0-62 34-99 96-99zm-1 164c35 0 45-28 45-65 0-40-10-65-43-65-34 0-45 26-45 65 0 36 10 65 43 65" id="u"/><path d="M190-63c-7 42-38 67-86 67-59 0-84-38-90-98-12-110 154-137 174-36l-49 2c-2-19-15-32-35-32-30 0-35 28-38 64-6 74 65 87 74 30" id="v"/><g id="b"><use transform="matrix(0.05,0,0,0.05,0,0)" xlink:href="#t"/><use transform="matrix(0.05,0,0,0.05,12,0)" xlink:href="#s"/><use transform="matrix(0.05,0,0,0.05,19,0)" xlink:href="#u"/><use transform="matrix(0.05,0,0,0.05,29.950000000000003,0)" xlink:href="#v"/><use transform="matrix(0.05,0,0,0.05,39.95,0)" xlink:href="#r"/><use transform="matrix(0.05,0,0,0.05,49.95,0)" xlink:href="#p"/><use transform="matrix(0.05,0,0,0.05,59.95,0)" xlink:href="#p"/></g><path d="M160-131c35 5 61 23 61 61C221 17 115-2 30 0v-248c76 3 177-17 177 60 0 33-19 50-47 57zm-97-11c50-1 110 9 110-42 0-47-63-36-110-37v79zm0 115c55-2 124 14 124-45 0-56-70-42-124-44v89" id="w"/><path d="M100-194c63 0 86 42 84 106H49c0 40 14 67 53 68 26 1 43-12 49-29l28 8c-11 28-37 45-77 45C44 4 14-33 15-96c1-61 26-98 85-98zm52 81c6-60-76-77-97-28-3 7-6 17-6 28h103" id="x"/><path d="M96-169c-40 0-48 33-48 73s9 75 48 75c24 0 41-14 43-38l32 2c-6 37-31 61-74 61-59 0-76-41-82-99-10-93 101-131 147-64 4 7 5 14 7 22l-32 3c-4-21-16-35-41-35" id="y"/><path d="M100-194c62-1 85 37 85 99 1 63-27 99-86 99S16-35 15-95c0-66 28-99 85-99zM99-20c44 1 53-31 53-75 0-43-8-75-51-75s-53 32-53 75 10 74 51 75" id="z"/><path d="M210-169c-67 3-38 105-44 169h-31v-121c0-29-5-50-35-48C34-165 62-65 56 0H25l-1-190h30c1 10-1 24 2 32 10-44 99-50 107 0 11-21 27-35 58-36 85-2 47 119 55 194h-31v-121c0-29-5-49-35-48" id="A"/><g id="c"><use transform="matrix(0.05,0,0,0.05,0,0)" xlink:href="#w"/><use transform="matrix(0.05,0,0,0.05,12,0)" xlink:href="#x"/><use transform="matrix(0.05,0,0,0.05,22,0)" xlink:href="#y"/><use transform="matrix(0.05,0,0,0.05,31,0)" xlink:href="#z"/><use transform="matrix(0.05,0,0,0.05,41,0)" xlink:href="#A"/><use transform="matrix(0.05,0,0,0.05,55.95,0)" xlink:href="#x"/></g><path d="M240 0l2-218c-23 76-54 145-80 218h-23L58-218 59 0H30v-248h44l77 211c21-75 51-140 76-211h43V0h-30" id="B"/><path d="M141-36C126-15 110 5 73 4 37 3 15-17 15-53c-1-64 63-63 125-63 3-35-9-54-41-54-24 1-41 7-42 31l-33-3c5-37 33-52 76-52 45 0 72 20 72 64v82c-1 20 7 32 28 27v20c-31 9-61-2-59-35zM48-53c0 20 12 33 32 33 41-3 63-29 60-74-43 2-92-5-92 41" id="C"/><path d="M135-143c-3-34-86-38-87 0 15 53 115 12 119 90S17 21 10-45l28-5c4 36 97 45 98 0-10-56-113-15-118-90-4-57 82-63 122-42 12 7 21 19 24 35" id="D"/><path d="M59-47c-2 24 18 29 38 22v24C64 9 27 4 27-40v-127H5v-23h24l9-43h21v43h35v23H59v120" id="E"/><path d="M114-163C36-179 61-72 57 0H25l-1-190h30c1 12-1 29 2 39 6-27 23-49 58-41v29" id="F"/><g id="d"><use transform="matrix(0.05,0,0,0.05,0,0)" xlink:href="#B"/><use transform="matrix(0.05,0,0,0.05,14.950000000000001,0)" xlink:href="#C"/><use transform="matrix(0.05,0,0,0.05,24.950000000000003,0)" xlink:href="#D"/><use transform="matrix(0.05,0,0,0.05,33.95,0)" xlink:href="#E"/><use transform="matrix(0.05,0,0,0.05,38.95,0)" xlink:href="#x"/><use transform="matrix(0.05,0,0,0.05,48.95,0)" xlink:href="#F"/></g><path d="M185-189c-5-48-123-54-124 2 14 75 158 14 163 119 3 78-121 87-175 55-17-10-28-26-33-46l33-7c5 56 141 63 141-1 0-78-155-14-162-118-5-82 145-84 179-34 5 7 8 16 11 25" id="G"/><path d="M84 4C-5 8 30-112 23-190h32v120c0 31 7 50 39 49 72-2 45-101 50-169h31l1 190h-30c-1-10 1-25-2-33-11 22-28 36-60 37" id="H"/><g id="e"><use transform="matrix(0.05,0,0,0.05,0,0)" xlink:href="#G"/><use transform="matrix(0.05,0,0,0.05,12,0)" xlink:href="#H"/><use transform="matrix(0.05,0,0,0.05,22,0)" xlink:href="#y"/><use transform="matrix(0.05,0,0,0.05,31,0)" xlink:href="#y"/><use transform="matrix(0.05,0,0,0.05,40,0)" xlink:href="#x"/><use transform="matrix(0.05,0,0,0.05,50,0)" xlink:href="#D"/><use transform="matrix(0.05,0,0,0.05,59,0)" xlink:href="#D"/></g><path d="M137-103V0h-34v-103L8-248h37l75 118 75-118h37" id="I"/><g id="f"><use transform="matrix(0.05,0,0,0.05,0,0)" xlink:href="#I"/><use transform="matrix(0.05,0,0,0.05,10.35,0)" xlink:href="#x"/><use transform="matrix(0.05,0,0,0.05,20.35,0)" xlink:href="#D"/></g><path d="M266 0h-40l-56-210L115 0H75L2-248h35L96-30l15-64 43-154h32l59 218 59-218h35" id="J"/><path d="M24-231v-30h32v30H24zM24 0v-190h32V0H24" id="K"/><g id="g"><use transform="matrix(0.05,0,0,0.05,0,0)" xlink:href="#J"/><use transform="matrix(0.05,0,0,0.05,16.599999999999998,0)" xlink:href="#F"/><use transform="matrix(0.05,0,0,0.05,22.549999999999997,0)" xlink:href="#K"/><use transform="matrix(0.05,0,0,0.05,26.499999999999996,0)" xlink:href="#E"/><use transform="matrix(0.05,0,0,0.05,31.499999999999996,0)" xlink:href="#x"/></g><path d="M197 0v-115H63V0H30v-248h33v105h134v-105h34V0h-34" id="L"/><path d="M115-194c53 0 69 39 70 98 0 66-23 100-70 100C84 3 66-7 56-30L54 0H23l1-261h32v101c10-23 28-34 59-34zm-8 174c40 0 45-34 45-75 0-40-5-75-45-74-42 0-51 32-51 76 0 43 10 73 51 73" id="M"/><g id="h"><use transform="matrix(0.05,0,0,0.05,0,0)" xlink:href="#L"/><use transform="matrix(0.05,0,0,0.05,12.950000000000001,0)" xlink:href="#x"/><use transform="matrix(0.05,0,0,0.05,22.950000000000003,0)" xlink:href="#C"/><use transform="matrix(0.05,0,0,0.05,32.95,0)" xlink:href="#F"/><use transform="matrix(0.05,0,0,0.05,38.900000000000006,0)" xlink:href="#E"/><use transform="matrix(0.05,0,0,0.05,43.900000000000006,0)" xlink:href="#M"/><use transform="matrix(0.05,0,0,0.05,53.900000000000006,0)" xlink:href="#x"/><use transform="matrix(0.05,0,0,0.05,63.900000000000006,0)" xlink:href="#C"/><use transform="matrix(0.05,0,0,0.05,73.9,0)" xlink:href="#E"/></g><path d="M190 0L58-211 59 0H30v-248h39L202-35l-2-213h31V0h-41" id="N"/><g id="i"><use transform="matrix(0.05,0,0,0.05,0,0)" xlink:href="#N"/><use transform="matrix(0.05,0,0,0.05,12.950000000000001,0)" xlink:href="#z"/></g><path d="M30 0v-248h187v28H63v79h144v27H63v87h162V0H30" id="O"/><path d="M141 0L90-78 38 0H4l68-98-65-92h35l48 74 47-74h35l-64 92 68 98h-35" id="P"/><g id="j"><use transform="matrix(0.05,0,0,0.05,0,0)" xlink:href="#O"/><use transform="matrix(0.05,0,0,0.05,12,0)" xlink:href="#P"/><use transform="matrix(0.05,0,0,0.05,21,0)" xlink:href="#x"/><use transform="matrix(0.05,0,0,0.05,31,0)" xlink:href="#y"/></g><g id="k"><use transform="matrix(0.05,0,0,0.05,0,0)" xlink:href="#G"/><use transform="matrix(0.05,0,0,0.05,12,0)" xlink:href="#E"/><use transform="matrix(0.05,0,0,0.05,17,0)" xlink:href="#C"/><use transform="matrix(0.05,0,0,0.05,27,0)" xlink:href="#F"/><use transform="matrix(0.05,0,0,0.05,32.95,0)" xlink:href="#E"/></g><path d="M143 0L79-87 56-68V0H24v-261h32v163l83-92h37l-77 82L181 0h-38" id="Q"/><g id="l"><use transform="matrix(0.05,0,0,0.05,0,0)" xlink:href="#L"/><use transform="matrix(0.05,0,0,0.05,12.950000000000001,0)" xlink:href="#z"/><use transform="matrix(0.05,0,0,0.05,22.950000000000003,0)" xlink:href="#z"/><use transform="matrix(0.05,0,0,0.05,32.95,0)" xlink:href="#Q"/></g><path d="M115-194c55 1 70 41 70 98S169 2 115 4C84 4 66-9 55-30l1 105H24l-1-265h31l2 30c10-21 28-34 59-34zm-8 174c40 0 45-34 45-75s-6-73-45-74c-42 0-51 32-51 76 0 43 10 73 51 73" id="R"/><g id="m"><use transform="matrix(0.05,0,0,0.05,0,0)" xlink:href="#G"/><use transform="matrix(0.05,0,0,0.05,12,0)" xlink:href="#E"/><use transform="matrix(0.05,0,0,0.05,17,0)" xlink:href="#z"/><use transform="matrix(0.05,0,0,0.05,27,0)" xlink:href="#R"/></g></defs></g></svg>